<svg width="85" height="85" viewBox="0 0 85 85" fill="none" xmlns="http://www.w3.org/2000/svg">
<path d="M62.524 37.2629H59.9425C59.6735 33.7843 58.2871 30.6144 56.1435 28.1114L57.9748 26.2801C58.4611 25.7937 58.4611 25.0054 57.9748 24.5192C57.4887 24.0331 56.7003 24.0331 56.2141 24.5192L54.3826 26.3505C51.8794 24.2067 48.7097 22.8205 45.2311 22.5516V19.9698C45.2311 19.282 44.6737 18.7247 43.986 18.7247C43.2984 18.7247 42.7409 19.282 42.7409 19.9698V22.5516C39.2624 22.8205 36.0926 24.2069 33.5895 26.3505L31.7581 24.5192C31.2719 24.0331 30.4835 24.0331 29.9974 24.5192C29.5111 25.0056 29.5111 25.7938 29.9974 26.2801L31.8287 28.1114C29.6849 30.6146 28.2987 33.7845 28.0298 37.2629H25.4482C24.7606 37.2629 24.2031 37.8202 24.2031 38.508C24.2031 39.1958 24.7606 39.7531 25.4482 39.7531H28.0298C28.2987 43.2316 29.6849 46.4014 31.8287 48.9046L29.9974 50.7359C29.5111 51.2223 29.5111 52.0105 29.9974 52.4968C30.2404 52.7398 30.5592 52.8614 30.8778 52.8614C31.1963 52.8614 31.5151 52.7398 31.7581 52.4968L33.5895 50.6655C36.0926 52.8092 39.2624 54.1955 42.7409 54.4644V57.0461C42.7409 57.7339 43.2984 58.2912 43.986 58.2912C44.6737 58.2912 45.2311 57.7339 45.2311 57.0461V54.4644C48.7097 54.1955 51.8796 52.8092 54.3826 50.6655L56.2139 52.4968C56.457 52.7398 56.7757 52.8614 57.0943 52.8614C57.4129 52.8614 57.7316 52.7398 57.9747 52.4968C58.4609 52.0104 58.4609 51.2221 57.9747 50.7359L56.1434 48.9047C58.2871 46.4017 59.6733 43.2318 59.9423 39.7533H62.5238C63.2115 39.7533 63.769 39.196 63.769 38.5082C63.7691 37.8202 63.2116 37.2629 62.524 37.2629ZM43.9859 52.0222C36.5341 52.0222 30.4715 45.9596 30.4715 38.508C30.4715 31.056 36.5341 24.9936 43.9859 24.9936C51.4378 24.9936 57.5002 31.0562 57.5002 38.508C57.5002 45.9598 51.4378 52.0222 43.9859 52.0222Z" fill="url(#paint0_linear_7_188)"/>
<path d="M52.5144 37.263H50.3208C49.7388 34.2966 47.1202 32.0514 43.986 32.0514C40.4258 32.0514 37.5295 34.9477 37.5295 38.5081C37.5295 42.0681 40.4258 44.9646 43.986 44.9646C47.1202 44.9646 49.7389 42.7194 50.3208 39.7532H52.5144C53.202 39.7532 53.7595 39.1959 53.7595 38.5081C53.7595 37.8203 53.202 37.263 52.5144 37.263ZM43.9858 42.4744C41.7987 42.4744 40.0196 40.695 40.0196 38.5081C40.0196 36.321 41.7987 34.5416 43.9858 34.5416C46.1729 34.5416 47.9521 36.321 47.9521 38.5081C47.9521 40.695 46.1729 42.4744 43.9858 42.4744Z" fill="url(#paint1_linear_7_188)"/>
<path d="M75.6125 0H9.38751C6.41251 0 3.992 2.42034 3.992 5.39551V35.7946C3.992 36.4824 4.54949 37.0397 5.23712 37.0397C5.92476 37.0397 6.48224 36.4824 6.48224 35.7946V31.6678H11.528V45.348H6.48224V41.2212C6.48224 40.5334 5.92476 39.9761 5.23712 39.9761C4.54949 39.9761 3.992 40.5334 3.992 41.2212V71.6203C3.992 74.5955 6.41251 77.0158 9.38751 77.0158H11.528V82.0947C11.528 83.6966 12.8313 85 14.4332 85H21.7985C23.4004 85 24.7038 83.6966 24.7038 82.0947V77.0158H60.2964V82.0947C60.2964 83.6966 61.5998 85 63.2017 85H70.567C72.1688 85 73.4722 83.6966 73.4722 82.0947V77.0158H75.6127C78.5877 77.0158 81.0082 74.5955 81.0082 71.6203V62.6548C81.0082 61.967 80.4507 61.4097 79.7631 61.4097C79.0754 61.4097 78.5179 61.967 78.5179 62.6548V71.6203C78.5179 73.2222 77.2145 74.5256 75.6127 74.5256H9.38751C7.78563 74.5256 6.48224 73.2222 6.48224 71.6203V61.1867H11.528V66.5746C11.528 68.1766 12.8313 69.4799 14.4332 69.4799H70.5668C72.1687 69.4799 73.4721 68.1766 73.4721 66.5746V47.8382H78.5178V57.2282C78.5178 57.916 79.0753 58.4734 79.7629 58.4734C80.4505 58.4734 81.008 57.916 81.008 57.2282V5.39551C81.008 2.42034 78.5875 0 75.6125 0ZM22.2136 82.0947C22.2136 82.3237 22.0273 82.5098 21.7985 82.5098H14.4332C14.2043 82.5098 14.0182 82.3237 14.0182 82.0947V77.0158H22.2136V82.0947ZM70.9818 82.0947C70.9818 82.3237 70.7957 82.5098 70.5668 82.5098H63.2015C62.9727 82.5098 62.7865 82.3237 62.7865 82.0947V77.0158H70.9818V82.0947ZM6.48224 18.3193H12.7731H15.4245C15.6533 18.3193 15.8395 18.5054 15.8395 18.7344V28.7625C15.8395 28.9915 15.6533 29.1776 15.4245 29.1776H12.7731H6.48224V18.3193ZM6.48224 47.8382H12.7731H15.4245C15.6533 47.8382 15.8395 48.0243 15.8395 48.2533V58.2814C15.8395 58.5104 15.6533 58.6965 15.4245 58.6965H12.7731H6.48224V47.8382ZM70.9818 66.5748C70.9818 66.8037 70.7957 66.9898 70.5668 66.9898H14.4332C14.2043 66.9898 14.0182 66.8037 14.0182 66.5748V61.1867H15.4245C17.0264 61.1867 18.3298 59.8835 18.3298 58.2814V48.2533C18.3298 46.6514 17.0264 45.348 15.4245 45.348H14.0182V31.6678H15.4245C17.0264 31.6678 18.3298 30.3644 18.3298 28.7625V18.7344C18.3298 17.1325 17.0264 15.8291 15.4245 15.8291H14.0182V10.4412C14.0182 10.2123 14.2043 10.0262 14.4332 10.0262H31.8612C32.5489 10.0262 33.1063 9.46887 33.1063 8.78106C33.1063 8.09326 32.5489 7.53595 31.8612 7.53595H14.4332C12.8313 7.53595 11.528 8.83934 11.528 10.4412V15.8291H6.48224V5.39551C6.48224 3.79362 7.78563 2.49023 9.38751 2.49023H75.6123C77.2142 2.49023 78.5176 3.79362 78.5176 5.39551V29.1776H73.4719V10.4412C73.4719 8.83934 72.1685 7.53595 70.5666 7.53595H37.2878C36.6001 7.53595 36.0427 8.09326 36.0427 8.78106C36.0427 9.46887 36.6001 10.0262 37.2878 10.0262H70.5668C70.7957 10.0262 70.9818 10.2123 70.9818 10.4412V66.5748ZM73.4721 45.348V31.6678H78.5178V45.348H73.4721Z" fill="url(#paint2_linear_7_188)"/>
<defs>
<linearGradient id="paint0_linear_7_188" x1="24.2072" y1="18.7247" x2="59.5341" y2="61.7638" gradientUnits="userSpaceOnUse">
<stop stop-color="#47FFDE"/>
<stop offset="1" stop-color="#1549D0"/>
</linearGradient>
<linearGradient id="paint1_linear_7_188" x1="37.5312" y1="32.0514" x2="48.2943" y2="48.5326" gradientUnits="userSpaceOnUse">
<stop stop-color="#47FFDE"/>
<stop offset="1" stop-color="#1549D0"/>
</linearGradient>
<linearGradient id="paint2_linear_7_188" x1="3.99999" y1="-1.18029e-08" x2="81" y2="85" gradientUnits="userSpaceOnUse">
<stop stop-color="#47FFDE"/>
<stop offset="1" stop-color="#1549D0"/>
</linearGradient>
</defs>
</svg>
