<svg width="178" height="85" viewBox="0 0 178 85" fill="none" xmlns="http://www.w3.org/2000/svg">
<path d="M49.1406 71.7188H46.4844V58.7031C46.4844 58.3509 46.3444 58.0131 46.0954 57.764C45.8463 57.5149 45.5085 57.375 45.1562 57.375C44.804 57.375 44.4662 57.5149 44.2171 57.764C43.9681 58.0131 43.8281 58.3509 43.8281 58.7031V71.7188H9.29688V45.1562H20.3469C20.6991 45.1562 21.0369 45.0163 21.286 44.7673C21.5351 44.5182 21.675 44.1804 21.675 43.8281C21.675 43.4759 21.5351 43.1381 21.286 42.889C21.0369 42.6399 20.6991 42.5 20.3469 42.5H7.96875C7.61651 42.5 7.2787 42.6399 7.02962 42.889C6.78055 43.1381 6.64062 43.4759 6.64062 43.8281V71.7188H3.98438C3.63213 71.7188 3.29432 71.8587 3.04525 72.1077C2.79618 72.3568 2.65625 72.6946 2.65625 73.0469V75.7031C2.65625 77.4643 3.35589 79.1534 4.60124 80.3988C5.8466 81.6441 7.53567 82.3438 9.29688 82.3438H43.8281C45.5893 82.3438 47.2784 81.6441 48.5238 80.3988C49.7691 79.1534 50.4688 77.4643 50.4688 75.7031V73.0469C50.4688 72.6946 50.3288 72.3568 50.0798 72.1077C49.8307 71.8587 49.4929 71.7188 49.1406 71.7188ZM47.8125 75.7031C47.8125 76.7598 47.3927 77.7733 46.6455 78.5205C45.8983 79.2677 44.8848 79.6875 43.8281 79.6875H41.1719V78.3594C41.1719 78.0071 41.0319 77.6693 40.7829 77.4202C40.5338 77.1712 40.196 77.0312 39.8438 77.0312C39.4915 77.0312 39.1537 77.1712 38.9046 77.4202C38.6556 77.6693 38.5156 78.0071 38.5156 78.3594V79.6875H14.6094V78.3594C14.6094 78.0071 14.4694 77.6693 14.2204 77.4202C13.9713 77.1712 13.6335 77.0312 13.2812 77.0312C12.929 77.0312 12.5912 77.1712 12.3421 77.4202C12.0931 77.6693 11.9531 78.0071 11.9531 78.3594V79.6875H9.29688C8.24015 79.6875 7.22671 79.2677 6.4795 78.5205C5.73228 77.7733 5.3125 76.7598 5.3125 75.7031V74.375H47.8125V75.7031Z" fill="url(#paint0_linear_7_432)"/>
<path d="M71.7188 10.625H74.375C74.7272 10.625 75.0651 10.4851 75.3141 10.236C75.5632 9.98693 75.7031 9.64912 75.7031 9.29688C75.7031 8.94463 75.5632 8.60682 75.3141 8.35775C75.0651 8.10868 74.7272 7.96875 74.375 7.96875H71.7188C70.662 7.96875 69.6486 8.38853 68.9014 9.13575C68.1542 9.88296 67.7344 10.8964 67.7344 11.9531V13.2812H66.4062C66.054 13.2812 65.7162 13.4212 65.4671 13.6702C65.2181 13.9193 65.0781 14.2571 65.0781 14.6094C65.0781 14.9616 65.2181 15.2994 65.4671 15.5485C65.7162 15.7976 66.054 15.9375 66.4062 15.9375H67.7344V19.9219C67.7344 20.2741 67.8743 20.6119 68.1234 20.861C68.3724 21.1101 68.7103 21.25 69.0625 21.25C69.4147 21.25 69.7526 21.1101 70.0016 20.861C70.2507 20.6119 70.3906 20.2741 70.3906 19.9219V15.9375H71.7188C72.071 15.9375 72.4088 15.7976 72.6579 15.5485C72.9069 15.2994 73.0469 14.9616 73.0469 14.6094C73.0469 14.2571 72.9069 13.9193 72.6579 13.6702C72.4088 13.4212 72.071 13.2812 71.7188 13.2812H70.3906V11.9531C70.3906 11.6009 70.5306 11.2631 70.7796 11.014C71.0287 10.7649 71.3665 10.625 71.7188 10.625Z" fill="url(#paint1_linear_7_432)"/>
<path d="M78.3594 2.65625H62.4219C61.3652 2.65625 60.3517 3.07603 59.6045 3.82325C58.8573 4.57046 58.4375 5.5839 58.4375 6.64062V9.29688C58.4375 9.64912 58.5774 9.98693 58.8265 10.236C59.0756 10.4851 59.4134 10.625 59.7656 10.625C60.1179 10.625 60.4557 10.4851 60.7048 10.236C60.9538 9.98693 61.0938 9.64912 61.0938 9.29688V6.64062C61.0938 6.28838 61.2337 5.95057 61.4827 5.7015C61.7318 5.45243 62.0696 5.3125 62.4219 5.3125H78.3594C78.7116 5.3125 79.0494 5.45243 79.2985 5.7015C79.5476 5.95057 79.6875 6.28838 79.6875 6.64062V22.5781C79.6875 22.9304 79.5476 23.2682 79.2985 23.5173C79.0494 23.7663 78.7116 23.9062 78.3594 23.9062H62.4219C62.0696 23.9062 61.7318 23.7663 61.4827 23.5173C61.2337 23.2682 61.0938 22.9304 61.0938 22.5781V14.6094C61.0938 14.2571 60.9538 13.9193 60.7048 13.6702C60.4557 13.4212 60.1179 13.2812 59.7656 13.2812C59.4134 13.2812 59.0756 13.4212 58.8265 13.6702C58.5774 13.9193 58.4375 14.2571 58.4375 14.6094V22.5781C58.4375 23.6348 58.8573 24.6483 59.6045 25.3955C60.3517 26.1427 61.3652 26.5625 62.4219 26.5625H78.3594C79.4161 26.5625 80.4295 26.1427 81.1768 25.3955C81.924 24.6483 82.3438 23.6348 82.3438 22.5781V6.64062C82.3438 5.5839 81.924 4.57046 81.1768 3.82325C80.4295 3.07603 79.4161 2.65625 78.3594 2.65625Z" fill="url(#paint2_linear_7_432)"/>
<path d="M65.0781 55.7812C65.0781 56.832 65.3897 57.8591 65.9734 58.7327C66.5572 59.6064 67.3869 60.2873 68.3576 60.6894C69.3284 61.0915 70.3965 61.1967 71.427 60.9917C72.4576 60.7867 73.4042 60.2807 74.1471 59.5378C74.8901 58.7948 75.3961 57.8482 75.601 56.8177C75.806 55.7871 75.7008 54.719 75.2987 53.7482C74.8966 52.7775 74.2157 51.9478 73.3421 51.3641C72.4685 50.7803 71.4413 50.4688 70.3906 50.4688C68.9817 50.4688 67.6304 51.0285 66.6341 52.0247C65.6378 53.021 65.0781 54.3723 65.0781 55.7812ZM73.0469 55.7812C73.0469 56.3066 72.8911 56.8202 72.5992 57.257C72.3073 57.6938 71.8925 58.0343 71.4071 58.2353C70.9218 58.4364 70.3877 58.489 69.8724 58.3865C69.3572 58.284 68.8839 58.031 68.5124 57.6595C68.1409 57.288 67.8879 56.8147 67.7854 56.2995C67.6829 55.7842 67.7355 55.2501 67.9366 54.7647C68.1376 54.2794 68.4781 53.8645 68.9149 53.5727C69.3517 53.2808 69.8653 53.125 70.3906 53.125C71.0951 53.125 71.7707 53.4049 72.2689 53.903C72.767 54.4011 73.0469 55.0768 73.0469 55.7812Z" fill="url(#paint3_linear_7_432)"/>
<path d="M78.3594 43.8281H62.4219C61.3652 43.8281 60.3517 44.2479 59.6045 44.9951C58.8573 45.7423 58.4375 46.7558 58.4375 47.8125V63.75C58.4375 64.8067 58.8573 65.8202 59.6045 66.5674C60.3517 67.3146 61.3652 67.7344 62.4219 67.7344H78.3594C79.4161 67.7344 80.4295 67.3146 81.1768 66.5674C81.924 65.8202 82.3438 64.8067 82.3438 63.75V61.0938C82.3438 60.7415 82.2038 60.4037 81.9548 60.1546C81.7057 59.9056 81.3679 59.7656 81.0156 59.7656C80.6634 59.7656 80.3256 59.9056 80.0765 60.1546C79.8274 60.4037 79.6875 60.7415 79.6875 61.0938V63.75C79.6875 64.1022 79.5476 64.4401 79.2985 64.6891C79.0494 64.9382 78.7116 65.0781 78.3594 65.0781H62.4219C62.0696 65.0781 61.7318 64.9382 61.4827 64.6891C61.2337 64.4401 61.0938 64.1022 61.0938 63.75V47.8125C61.0938 47.4603 61.2337 47.1224 61.4827 46.8734C61.7318 46.6243 62.0696 46.4844 62.4219 46.4844H78.3594C78.7116 46.4844 79.0494 46.6243 79.2985 46.8734C79.5476 47.1224 79.6875 47.4603 79.6875 47.8125V55.7812C79.6875 56.1335 79.8274 56.4713 80.0765 56.7204C80.3256 56.9694 80.6634 57.1094 81.0156 57.1094C81.3679 57.1094 81.7057 56.9694 81.9548 56.7204C82.2038 56.4713 82.3438 56.1335 82.3438 55.7812V47.8125C82.3438 46.7558 81.924 45.7423 81.1768 44.9951C80.4295 44.2479 79.4161 43.8281 78.3594 43.8281Z" fill="url(#paint4_linear_7_432)"/>
<path d="M32.4992 18.3944C32.7106 18.5254 32.9545 18.5944 33.2031 18.5936C33.411 18.5924 33.6157 18.5424 33.8008 18.4475L41.7695 14.4632C41.9871 14.3517 42.1697 14.1824 42.2971 13.9738C42.4246 13.7653 42.4921 13.5256 42.4921 13.2811C42.4921 13.0367 42.4246 12.797 42.2971 12.5884C42.1697 12.3799 41.9871 12.2106 41.7695 12.0991L33.8008 8.11473C33.5986 8.01285 33.3737 7.96434 33.1475 7.97382C32.9213 7.9833 32.7013 8.05044 32.5084 8.16887C32.3154 8.2873 32.1559 8.45309 32.0451 8.6505C31.9342 8.8479 31.8757 9.07036 31.875 9.29676V17.2655C31.8746 17.4912 31.9316 17.7133 32.0408 17.9108C32.1501 18.1084 32.3078 18.2748 32.4992 18.3944ZM34.5313 11.4483L38.1969 13.2811L34.5313 15.1139V11.4483Z" fill="url(#paint5_linear_7_432)"/>
<path d="M35.8594 25.2344C38.2235 25.2344 40.5345 24.5333 42.5002 23.2199C44.4659 21.9065 45.9979 20.0397 46.9026 17.8555C47.8073 15.6714 48.044 13.268 47.5828 10.9493C47.1216 8.63064 45.9832 6.50079 44.3115 4.82912C42.6398 3.15745 40.51 2.01902 38.1913 1.55781C35.8726 1.09659 33.4693 1.3333 31.2851 2.23801C29.101 3.14271 27.2341 4.67477 25.9207 6.64045C24.6073 8.60614 23.9062 10.9172 23.9062 13.2813C23.9063 16.4514 25.1656 19.4917 27.4072 21.7334C29.6489 23.975 32.6892 25.2344 35.8594 25.2344ZM35.8594 3.98438C37.6981 3.98438 39.4956 4.52963 41.0244 5.55119C42.5533 6.57274 43.7449 8.02471 44.4486 9.7235C45.1522 11.4223 45.3363 13.2916 44.9776 15.095C44.6189 16.8984 43.7334 18.5549 42.4333 19.8551C41.1331 21.1553 39.4765 22.0408 37.6731 22.3995C35.8697 22.7582 34.0004 22.5741 32.3016 21.8704C30.6028 21.1668 29.1509 19.9752 28.1293 18.4463C27.1078 16.9175 26.5625 15.12 26.5625 13.2813C26.5625 10.8156 27.542 8.45087 29.2855 6.70737C31.029 4.96387 33.3937 3.98438 35.8594 3.98438Z" fill="url(#paint6_linear_7_432)"/>
<path d="M49.1406 30.5469C49.3468 30.5469 49.5502 30.4989 49.7346 30.4067C49.919 30.3145 50.0794 30.1806 50.2031 30.0156L54.1875 24.7031C54.3988 24.4213 54.4896 24.0671 54.4398 23.7184C54.39 23.3697 54.2037 23.0551 53.9219 22.8438C53.6401 22.6324 53.2859 22.5417 52.9372 22.5915C52.5885 22.6413 52.2738 22.8276 52.0625 23.1094L48.0781 28.4219C47.8668 28.7037 47.776 29.0579 47.8259 29.4066C47.8757 29.7553 48.062 30.0699 48.3438 30.2813C48.5736 30.4537 48.8533 30.5469 49.1406 30.5469Z" fill="url(#paint7_linear_7_432)"/>
<path d="M52.0625 35.3281C52.1862 35.4931 52.3466 35.627 52.5311 35.7192C52.7155 35.8114 52.9188 35.8594 53.125 35.8594C53.4124 35.8594 53.692 35.7662 53.9219 35.5938L59.2344 31.6094C59.5162 31.398 59.7025 31.0834 59.7523 30.7347C59.8021 30.386 59.7113 30.0318 59.5 29.75C59.2887 29.4682 58.974 29.2819 58.6253 29.2321C58.2766 29.1823 57.9224 29.273 57.6406 29.4844L52.3281 33.4688C52.0463 33.6801 51.86 33.9947 51.8102 34.3434C51.7604 34.6921 51.8512 35.0463 52.0625 35.3281Z" fill="url(#paint8_linear_7_432)"/>
<path d="M65.0781 38.25C65.0466 38.0739 64.9798 37.906 64.8817 37.7564C64.7837 37.6068 64.6564 37.4785 64.5076 37.3793C64.3587 37.2801 64.1914 37.2119 64.0155 37.179C63.8397 37.146 63.6591 37.1489 63.4844 37.1875L56.8438 38.5156C56.6693 38.5331 56.5001 38.5847 56.3456 38.6676C56.1911 38.7504 56.0545 38.8629 55.9435 38.9985C55.7194 39.2725 55.6132 39.6243 55.6484 39.9766C55.6837 40.3288 55.8574 40.6526 56.1314 40.8768C56.4053 41.101 56.7571 41.2071 57.1094 41.1719H57.375L64.0156 39.8438C64.1917 39.8122 64.3596 39.7454 64.5092 39.6473C64.6588 39.5493 64.7871 39.422 64.8863 39.2732C64.9856 39.1243 65.0537 38.957 65.0867 38.7812C65.1196 38.6054 65.1167 38.4247 65.0781 38.25Z" fill="url(#paint9_linear_7_432)"/>
<path d="M3.98438 38.5156H19.9219C20.2741 38.5156 20.6119 38.3757 20.861 38.1266C21.1101 37.8776 21.25 37.5397 21.25 37.1875V15.9375C21.25 15.5853 21.1101 15.2474 20.861 14.9984C20.6119 14.7493 20.2741 14.6094 19.9219 14.6094H3.98438C3.63213 14.6094 3.29432 14.7493 3.04525 14.9984C2.79618 15.2474 2.65625 15.5853 2.65625 15.9375V37.1875C2.65625 37.5397 2.79618 37.8776 3.04525 38.1266C3.29432 38.3757 3.63213 38.5156 3.98438 38.5156ZM5.3125 17.2656H18.5938V35.8594H5.3125V17.2656Z" fill="url(#paint10_linear_7_432)"/>
<path d="M14.6094 19.9219H11.9531C11.6009 19.9219 11.2631 20.0618 11.014 20.3109C10.7649 20.5599 10.625 20.8978 10.625 21.25C10.625 21.6022 10.7649 21.9401 11.014 22.1891C11.2631 22.4382 11.6009 22.5781 11.9531 22.5781H14.6094C14.9616 22.5781 15.2994 22.4382 15.5485 22.1891C15.7976 21.9401 15.9375 21.6022 15.9375 21.25C15.9375 20.8978 15.7976 20.5599 15.5485 20.3109C15.2994 20.0618 14.9616 19.9219 14.6094 19.9219Z" fill="url(#paint11_linear_7_432)"/>
<path d="M14.6094 25.2344H9.29688C8.94463 25.2344 8.60682 25.3743 8.35775 25.6234C8.10868 25.8724 7.96875 26.2103 7.96875 26.5625C7.96875 26.9147 8.10868 27.2526 8.35775 27.5016C8.60682 27.7507 8.94463 27.8906 9.29688 27.8906H14.6094C14.9616 27.8906 15.2994 27.7507 15.5485 27.5016C15.7976 27.2526 15.9375 26.9147 15.9375 26.5625C15.9375 26.2103 15.7976 25.8724 15.5485 25.6234C15.2994 25.3743 14.9616 25.2344 14.6094 25.2344Z" fill="url(#paint12_linear_7_432)"/>
<path d="M14.6094 30.5469H9.29688C8.94463 30.5469 8.60682 30.6868 8.35775 30.9359C8.10868 31.1849 7.96875 31.5228 7.96875 31.875C7.96875 32.2272 8.10868 32.5651 8.35775 32.8141C8.60682 33.0632 8.94463 33.2031 9.29688 33.2031H14.6094C14.9616 33.2031 15.2994 33.0632 15.5485 32.8141C15.7976 32.5651 15.9375 32.2272 15.9375 31.875C15.9375 31.5228 15.7976 31.1849 15.5485 30.9359C15.2994 30.6868 14.9616 30.5469 14.6094 30.5469Z" fill="url(#paint13_linear_7_432)"/>
<path d="M47.9719 38.1173C47.8847 37.9655 47.7684 37.8325 47.6298 37.7256C47.4912 37.6188 47.3329 37.5404 47.1639 37.4947C46.9949 37.4491 46.8186 37.4372 46.6451 37.4597C46.4715 37.4822 46.3041 37.5387 46.1524 37.6259C46.0006 37.7131 45.8675 37.8293 45.7607 37.9679C45.6539 38.1066 45.5754 38.2649 45.5298 38.4339C45.4842 38.6028 45.4723 38.7791 45.4948 38.9527C45.5173 39.1262 45.5737 39.2937 45.6609 39.4454L51.518 49.579L30.268 57.5477C30.268 57.5477 30.268 57.5477 30.175 57.5477H30.0688L26.6156 59.5399L24.318 60.8681C24.0155 61.0429 23.6815 61.1564 23.3351 61.202C22.9887 61.2476 22.6367 61.2243 22.2992 61.1337C21.6213 60.9505 21.0436 60.5065 20.6922 59.8985L18.0359 55.3032C17.7234 54.702 17.6525 54.0041 17.8377 53.3523C18.0229 52.7005 18.4501 52.1441 19.032 51.797L23.6273 49.1407L26.9477 54.8915C27.0647 55.0942 27.2332 55.2623 27.4361 55.3789C27.639 55.4956 27.8691 55.5565 28.1031 55.5556C28.3367 55.5565 28.5664 55.4958 28.769 55.3796C28.9717 55.2634 29.1401 55.0958 29.2573 54.8938C29.3745 54.6917 29.4363 54.4623 29.4365 54.2287C29.4368 53.9952 29.3754 53.7657 29.2586 53.5634L25.832 47.6399L42.5 33.8938L43.0445 34.8368C43.1317 34.9885 43.248 35.1216 43.3866 35.2284C43.5253 35.3352 43.6836 35.4137 43.8525 35.4593C44.0215 35.505 44.1978 35.5169 44.3713 35.4944C44.5449 35.4719 44.7123 35.4154 44.8641 35.3282C45.0158 35.241 45.1489 35.1248 45.2557 34.9861C45.3625 34.8475 45.441 34.6892 45.4866 34.5202C45.5322 34.3513 45.5441 34.175 45.5216 34.0014C45.4991 33.8278 45.4427 33.6604 45.3555 33.5087L44.0274 31.211C43.93 31.0446 43.7976 30.9014 43.6394 30.7913C43.4811 30.6812 43.3008 30.6069 43.1109 30.5735C42.9201 30.5375 42.7236 30.5439 42.5354 30.5921C42.3473 30.6402 42.172 30.7291 42.0219 30.8524L23.4281 46.179L17.7703 49.4462C16.755 50.0376 15.9644 50.9489 15.5222 52.0375C15.08 53.1262 15.0112 54.3307 15.3266 55.4626L13.9984 56.2196C13.3141 56.6126 12.7619 57.1999 12.4118 57.9071C12.0617 58.6143 11.9295 59.4095 12.0319 60.192C12.1344 60.9744 12.4668 61.7088 12.9872 62.3021C13.5075 62.8953 14.1923 63.3207 14.9547 63.5243C15.2927 63.6138 15.641 63.6585 15.9906 63.6571C16.6893 63.6542 17.3755 63.4712 17.9828 63.1259L19.3109 62.3688C19.9489 63.0279 20.7513 63.5047 21.6352 63.7501C22.089 63.877 22.5584 63.9396 23.0297 63.936C23.9632 63.9382 24.8804 63.6906 25.6859 63.2188L26.8414 62.5548L29.4977 67.1634C30.0256 68.076 30.8937 68.7423 31.9118 69.0161C32.93 69.2899 34.0152 69.149 34.9297 68.6243C35.3834 68.3629 35.7811 68.0146 36.1001 67.5994C36.4191 67.1842 36.6531 66.7102 36.7888 66.2044C36.9245 65.6987 36.9592 65.1712 36.8908 64.6521C36.8225 64.133 36.6525 63.6324 36.3906 63.179L33.9734 58.9688L53.8953 51.4915C54.076 51.4236 54.2397 51.3171 54.375 51.1795C54.5103 51.0419 54.614 50.8764 54.6789 50.6946C54.7435 50.515 54.7687 50.3235 54.7527 50.1333C54.7366 49.9431 54.6798 49.7585 54.5859 49.5923L47.9719 38.1173ZM16.6016 60.8149C16.4503 60.9024 16.2833 60.9591 16.1101 60.9819C15.9369 61.0047 15.7609 60.9931 15.5922 60.9477C15.2519 60.8593 14.9606 60.6396 14.782 60.3368C14.6946 60.1856 14.6379 60.0185 14.6151 59.8453C14.5923 59.6721 14.6039 59.4961 14.6492 59.3274C14.6946 59.1578 14.7731 58.9989 14.8802 58.8598C14.9874 58.7208 15.121 58.6044 15.2734 58.5173L16.4289 57.8532L17.757 60.1509L16.6016 60.8149ZM34.0797 64.5337C34.1671 64.6849 34.2239 64.8519 34.2467 65.0251C34.2694 65.1983 34.2578 65.3743 34.2125 65.543C34.1178 65.8807 33.8934 66.1671 33.5883 66.3399C33.2849 66.5142 32.9251 66.5617 32.5869 66.4722C32.2487 66.3827 31.9594 66.1633 31.782 65.8618L29.1258 61.2532L31.3305 59.9915H31.4367L34.0797 64.5337Z" fill="url(#paint14_linear_7_432)"/>
<g clip-path="url(#clip0_7_432)">
<path d="M179.688 56.3945C180.3 55.4937 180.524 54.4084 180.318 53.3387L174.088 20.9211C173.665 18.7177 171.525 17.2649 169.319 17.6835L129.191 25.2993L109.228 22.7273C109.228 22.7272 109.227 22.7272 109.227 22.727L103.716 22.0171L99.8673 21.5214C99.7996 21.5127 99.7319 21.5056 99.6644 21.5004C98.6516 21.4198 97.6593 21.714 96.8506 22.3388C95.99 23.0039 95.4403 23.9639 95.3026 25.042L95.3021 25.0458C95.302 25.0459 95.302 25.0462 95.3021 25.0464L94.4142 31.9978L94.1066 34.4059L92.3151 48.4313C92.3151 48.4313 92.3152 48.4316 92.315 48.4317L92.0178 50.7585L91.1223 57.7701C90.9437 59.1678 91.5003 60.494 92.4902 61.3589C93.0776 61.8721 93.8178 62.223 94.6478 62.33L94.6508 62.3304C94.6513 62.3303 94.6518 62.3305 94.6521 62.3306L103.79 63.5079L104.6 67.721C104.778 68.6467 105.258 69.4397 105.919 70.0172C106.832 70.8149 108.089 71.2015 109.369 70.9587L130.498 66.9488L153.594 69.9243C153.622 69.93 153.65 69.9382 153.68 69.9421L163.039 71.1477C164.122 71.2872 165.193 70.9968 166.056 70.3302C166.916 69.6652 167.466 68.7052 167.604 67.6271L167.605 67.6195C167.605 67.6184 167.605 67.6173 167.605 67.6164L168.614 59.7148L177.076 58.1088C178.148 57.9049 179.076 57.2964 179.688 56.3945ZM103.644 31.1215C101.646 32.6653 99.2333 33.4614 96.7434 33.419L97.6426 26.3781L97.7726 25.3613C97.8262 24.9419 98.0401 24.5681 98.375 24.3094C98.6688 24.0824 99.0247 23.9676 99.3913 23.9786C99.4437 23.9803 99.4965 23.9845 99.5492 23.9913L102.217 24.335L107.606 25.0295C107.019 27.4472 105.641 29.5784 103.644 31.1215ZM94.9677 59.8598C94.0987 59.7463 93.4822 58.9508 93.5928 58.0851L93.6052 57.9881L94.6188 50.0525C99.6038 51.2713 103.119 55.7953 103.049 60.9011L94.9677 59.8598ZM108.905 68.5116C108.045 68.6747 107.21 68.1093 107.045 67.2506L106.39 63.8425L122.542 65.9234L108.905 68.5116ZM159.263 61.547C161.261 60.0032 163.673 59.207 166.163 59.2494L165.134 67.3036C165.08 67.7219 164.866 68.0943 164.532 68.3524C164.196 68.6119 163.779 68.725 163.358 68.6707L155.302 67.6328C155.89 65.2177 157.267 63.0887 159.263 61.547ZM176.612 55.6616L168.946 57.1165L171.785 34.8923C172.069 32.6651 170.487 30.6195 168.259 30.3324L155.091 28.6358C153.494 28.4303 153.177 30.8995 154.773 31.106L157.375 31.441C157.227 35.601 159.022 39.4707 162.009 42.0804C163.67 43.5321 165.701 44.5917 167.971 45.097L166.48 56.7684C163.329 56.6502 160.265 57.6254 157.74 59.5761C155.218 61.5244 153.502 64.2387 152.821 67.3128L130.607 64.4508C130.605 64.4506 130.602 64.4502 130.6 64.45L105.53 61.2202C105.756 54.7493 101.282 48.9844 94.9354 47.5715L96.4263 35.8995C99.5775 36.0177 102.641 35.0425 105.166 33.0918C107.69 31.1421 109.406 28.4256 110.087 25.3486L147.869 30.2162C149.466 30.4217 149.784 27.9519 148.187 27.7461L137.147 26.3237L169.783 20.1303C170.643 19.9671 171.477 20.5324 171.642 21.3914L177.873 53.8088C177.953 54.2243 177.866 54.6455 177.628 54.9954C177.39 55.3459 177.029 55.5824 176.612 55.6616ZM167.936 32.8084C168.807 32.9209 169.424 33.7171 169.314 34.5836L168.795 38.6439L168.288 42.6163C163.303 41.3974 159.787 36.8734 159.857 31.7678L167.936 32.8084Z" fill="url(#paint15_linear_7_432)"/>
<path d="M133.526 30.1152C129.193 29.557 124.904 30.7197 121.448 33.3893C117.995 36.0576 115.788 39.9122 115.235 44.2429C114.68 48.5889 115.855 52.8893 118.545 56.352C119.502 57.5836 121.482 56.0746 120.512 54.8242C118.231 51.8885 117.235 48.2428 117.705 44.5583C118.174 40.8879 120.044 37.6211 122.971 35.3597C125.899 33.0972 129.535 32.1117 133.208 32.5851C140.79 33.5617 146.17 40.5235 145.202 48.1035C144.733 51.7741 142.863 55.0408 139.936 57.3022C137.008 59.5646 133.372 60.55 129.699 60.0767C128.254 59.8904 126.859 59.4842 125.554 58.8691C124.097 58.1827 123.036 60.4353 124.492 61.1219C126.033 61.8477 127.678 62.3271 129.381 62.5466C133.714 63.1047 138.004 61.9422 141.459 59.2727C144.913 56.6043 147.119 52.7496 147.672 48.4188C148.814 39.4784 142.469 31.2675 133.526 30.1152Z" fill="url(#paint16_linear_7_432)"/>
<path d="M153.268 50.1856C153.447 50.3424 153.674 50.4494 153.928 50.4821L160.924 51.3835C161.606 51.4712 162.23 50.9895 162.318 50.3076C162.406 49.6255 161.924 49.0014 161.242 48.9135L154.246 48.012C153.564 47.9244 152.94 48.406 152.852 49.0879C152.796 49.5162 152.966 49.9214 153.268 50.1856Z" fill="url(#paint17_linear_7_432)"/>
<path d="M108.98 42.1803L101.983 41.279C101.301 41.1912 100.677 41.6728 100.589 42.3547C100.534 42.783 100.703 43.1882 101.006 43.4525C101.185 43.6092 101.411 43.7162 101.665 43.7489L108.661 44.6502C109.343 44.738 109.967 44.2564 110.055 43.5744C110.143 42.8922 109.662 42.2681 108.98 42.1803Z" fill="url(#paint18_linear_7_432)"/>
<path d="M128.859 56.0228C128.645 57.6939 131.131 57.8862 131.329 56.3383L131.482 55.1441C134.051 54.932 135.779 53.0427 136.355 51.1417C137.306 48.0037 135.38 45.9932 132.823 44.6405L133.466 39.6119C134.152 39.9052 134.528 40.3143 134.565 40.3553C135.609 41.5704 137.494 39.9687 136.463 38.7423C136.406 38.6758 135.475 37.5958 133.788 37.0851L133.913 36.1098C134.116 34.5128 131.646 34.1971 131.443 35.7943L131.307 36.8581C129.419 37.0519 127.796 38.3409 127.207 40.1564C126.343 42.8166 127.998 44.6685 130.141 45.9817L129.315 52.4526C128.515 52.2734 127.998 51.9838 127.17 51.278C125.973 50.2572 124.381 52.1795 125.555 53.1731C126.846 54.274 127.783 54.6909 128.998 54.9301L128.859 56.0228ZM129.815 42.6368C129.451 42.2686 129.357 41.5969 129.575 40.9254C129.762 40.3493 130.223 39.6959 130.976 39.4473L130.494 43.2192C130.239 43.0266 130.008 42.8321 129.815 42.6368ZM132.568 47.3105C134.457 48.2634 134.12 49.9308 133.972 50.4194C133.694 51.336 132.937 52.2475 131.812 52.5592L132.488 47.2695C132.515 47.2832 132.541 47.2967 132.568 47.3105Z" fill="url(#paint19_linear_7_432)"/>
</g>
<defs>
<linearGradient id="paint0_linear_7_432" x1="2.66121" y1="42.5" x2="36.4639" y2="91.9195" gradientUnits="userSpaceOnUse">
<stop stop-color="#47FFDE"/>
<stop offset="1" stop-color="#1549D0"/>
</linearGradient>
<linearGradient id="paint1_linear_7_432" x1="65.0792" y1="7.96875" x2="77.1653" y2="19.7486" gradientUnits="userSpaceOnUse">
<stop stop-color="#47FFDE"/>
<stop offset="1" stop-color="#1549D0"/>
</linearGradient>
<linearGradient id="paint2_linear_7_432" x1="58.44" y1="2.65625" x2="79.7845" y2="28.661" gradientUnits="userSpaceOnUse">
<stop stop-color="#47FFDE"/>
<stop offset="1" stop-color="#1549D0"/>
</linearGradient>
<linearGradient id="paint3_linear_7_432" x1="65.0792" y1="50.4687" x2="74.5657" y2="62.0264" gradientUnits="userSpaceOnUse">
<stop stop-color="#47FFDE"/>
<stop offset="1" stop-color="#1549D0"/>
</linearGradient>
<linearGradient id="paint4_linear_7_432" x1="58.44" y1="43.8281" x2="79.7845" y2="69.8329" gradientUnits="userSpaceOnUse">
<stop stop-color="#47FFDE"/>
<stop offset="1" stop-color="#1549D0"/>
</linearGradient>
<linearGradient id="paint5_linear_7_432" x1="31.8761" y1="7.97266" x2="41.3597" y2="19.5225" gradientUnits="userSpaceOnUse">
<stop stop-color="#47FFDE"/>
<stop offset="1" stop-color="#1549D0"/>
</linearGradient>
<linearGradient id="paint6_linear_7_432" x1="23.9087" y1="1.32812" x2="45.2533" y2="27.3329" gradientUnits="userSpaceOnUse">
<stop stop-color="#47FFDE"/>
<stop offset="1" stop-color="#1549D0"/>
</linearGradient>
<linearGradient id="paint7_linear_7_432" x1="47.8132" y1="22.5781" x2="55.0664" y2="29.9421" gradientUnits="userSpaceOnUse">
<stop stop-color="#47FFDE"/>
<stop offset="1" stop-color="#1549D0"/>
</linearGradient>
<linearGradient id="paint8_linear_7_432" x1="51.7977" y1="29.2187" x2="57.4315" y2="37.4553" gradientUnits="userSpaceOnUse">
<stop stop-color="#47FFDE"/>
<stop offset="1" stop-color="#1549D0"/>
</linearGradient>
<linearGradient id="paint9_linear_7_432" x1="55.6428" y1="37.1562" x2="57.9196" y2="43.6853" gradientUnits="userSpaceOnUse">
<stop stop-color="#47FFDE"/>
<stop offset="1" stop-color="#1549D0"/>
</linearGradient>
<linearGradient id="paint10_linear_7_432" x1="2.65818" y1="14.6094" x2="24.3888" y2="35.2011" gradientUnits="userSpaceOnUse">
<stop stop-color="#47FFDE"/>
<stop offset="1" stop-color="#1549D0"/>
</linearGradient>
<linearGradient id="paint11_linear_7_432" x1="10.6256" y1="19.9219" x2="12.3242" y2="24.0608" gradientUnits="userSpaceOnUse">
<stop stop-color="#47FFDE"/>
<stop offset="1" stop-color="#1549D0"/>
</linearGradient>
<linearGradient id="paint12_linear_7_432" x1="7.96958" y1="25.2344" x2="9.20056" y2="29.7336" gradientUnits="userSpaceOnUse">
<stop stop-color="#47FFDE"/>
<stop offset="1" stop-color="#1549D0"/>
</linearGradient>
<linearGradient id="paint13_linear_7_432" x1="7.96958" y1="30.5469" x2="9.20056" y2="35.0461" gradientUnits="userSpaceOnUse">
<stop stop-color="#47FFDE"/>
<stop offset="1" stop-color="#1549D0"/>
</linearGradient>
<linearGradient id="paint14_linear_7_432" x1="12.0027" y1="30.5505" x2="45.6211" y2="75.9195" gradientUnits="userSpaceOnUse">
<stop stop-color="#47FFDE"/>
<stop offset="1" stop-color="#1549D0"/>
</linearGradient>
<linearGradient id="paint15_linear_7_432" x1="131.503" y1="-17.4285" x2="127.892" y2="102.078" gradientUnits="userSpaceOnUse">
<stop stop-color="#47FFDE"/>
<stop offset="1" stop-color="#1549D0"/>
</linearGradient>
<linearGradient id="paint16_linear_7_432" x1="129.882" y1="23.2644" x2="128.248" y2="69.016" gradientUnits="userSpaceOnUse">
<stop stop-color="#47FFDE"/>
<stop offset="1" stop-color="#1549D0"/>
</linearGradient>
<linearGradient id="paint17_linear_7_432" x1="156.551" y1="44.5352" x2="155.02" y2="54.2959" gradientUnits="userSpaceOnUse">
<stop stop-color="#47FFDE"/>
<stop offset="1" stop-color="#1549D0"/>
</linearGradient>
<linearGradient id="paint18_linear_7_432" x1="104.289" y1="37.8021" x2="102.758" y2="47.5627" gradientUnits="userSpaceOnUse">
<stop stop-color="#47FFDE"/>
<stop offset="1" stop-color="#1549D0"/>
</linearGradient>
<linearGradient id="paint19_linear_7_432" x1="132.184" y1="33.8782" x2="134.548" y2="58.0029" gradientUnits="userSpaceOnUse">
<stop stop-color="#47FFDE"/>
<stop offset="1" stop-color="#1549D0"/>
</linearGradient>
<clipPath id="clip0_7_432">
<rect width="85" height="85" fill="white" transform="translate(93)"/>
</clipPath>
</defs>
</svg>
