<svg width="85" height="85" viewBox="0 0 85 85" fill="none" xmlns="http://www.w3.org/2000/svg">
<path d="M3.98438 61.0937H7.96875V62.4218C7.96875 62.7741 8.10868 63.1119 8.35775 63.361C8.60682 63.61 8.94463 63.75 9.29688 63.75H16.0703L16.6374 69.0625H13.2812C12.929 69.0625 12.5912 69.2024 12.3421 69.4515C12.0931 69.7005 11.9531 70.0383 11.9531 70.3906V81.0156C11.9531 81.3678 12.0931 81.7056 12.3421 81.9547C12.5912 82.2038 12.929 82.3437 13.2812 82.3437H31.875C32.2272 82.3437 32.5651 82.2038 32.8141 81.9547C33.0632 81.7056 33.2031 81.3678 33.2031 81.0156V70.3906C33.2031 70.0383 33.0632 69.7005 32.8141 69.4515C32.5651 69.2024 32.2272 69.0625 31.875 69.0625H28.5175L29.0846 63.75H35.8594C36.2116 63.75 36.5494 63.61 36.7985 63.361C37.0476 63.1119 37.1875 62.7741 37.1875 62.4218V61.0937H39.8438C40.196 61.0937 40.5338 60.9538 40.7829 60.7047C41.0319 60.4556 41.1719 60.1178 41.1719 59.7656V53.125C41.1719 52.7727 41.0319 52.4349 40.7829 52.1858C40.5338 51.9368 40.196 51.7968 39.8438 51.7968H37.1875V49.1406C37.1875 48.7883 37.0476 48.4505 36.7985 48.2015C36.5494 47.9524 36.2116 47.8125 35.8594 47.8125H26.2371L24.8851 43.079C25.5741 42.5897 26.0897 41.894 26.3574 41.0924C26.625 40.2908 26.6309 39.4249 26.3741 38.6197C26.1173 37.8146 25.6111 37.1119 24.9288 36.6134C24.2464 36.1148 23.4232 35.8461 22.5781 35.8461C21.733 35.8461 20.9098 36.1148 20.2275 36.6134C19.5451 37.1119 19.039 37.8146 18.7822 38.6197C18.5254 39.4249 18.5312 40.2908 18.7989 41.0924C19.0665 41.894 19.5821 42.5897 20.2712 43.079L18.9191 47.8125H9.29688C8.94463 47.8125 8.60682 47.9524 8.35775 48.2015C8.10868 48.4505 7.96875 48.7883 7.96875 49.1406V51.7968H3.98438C3.63213 51.7968 3.29432 51.9368 3.04525 52.1858C2.79618 52.4349 2.65625 52.7727 2.65625 53.125V59.7656C2.65625 60.1178 2.79618 60.4556 3.04525 60.7047C3.29432 60.9538 3.63213 61.0937 3.98438 61.0937ZM30.5469 79.6875H14.6094V71.7187H30.5469V79.6875ZM25.8466 69.0625H19.3096L18.7425 63.75H26.4137L25.8466 69.0625ZM38.5156 54.4531V58.4375H37.1875V54.4531H38.5156ZM22.5781 38.5156C22.8408 38.5156 23.0976 38.5935 23.316 38.7394C23.5344 38.8853 23.7046 39.0928 23.8052 39.3355C23.9057 39.5781 23.932 39.8452 23.8807 40.1028C23.8295 40.3604 23.703 40.5971 23.5173 40.7828C23.3315 40.9686 23.0949 41.0951 22.8372 41.1463C22.5796 41.1976 22.3126 41.1713 22.0699 41.0707C21.8272 40.9702 21.6198 40.8 21.4738 40.5816C21.3279 40.3632 21.25 40.1064 21.25 39.8437C21.25 39.4915 21.3899 39.1536 21.639 38.9046C21.8881 38.6555 22.2259 38.5156 22.5781 38.5156ZM22.5781 44.6754L23.4733 47.8125H21.683L22.5781 44.6754ZM10.625 50.4687H34.5312V61.0937H10.625V50.4687ZM5.3125 54.4531H7.96875V58.4375H5.3125V54.4531Z" fill="url(#paint0_linear_7_202)"/>
<path d="M18.5938 55.7812H21.25C21.25 54.7245 20.8302 53.7111 20.083 52.9639C19.3358 52.2167 18.3223 51.7969 17.2656 51.7969C16.2089 51.7969 15.1955 52.2167 14.4482 52.9639C13.701 53.7111 13.2812 54.7245 13.2812 55.7812H15.9375C15.9375 55.429 16.0774 55.0912 16.3265 54.8421C16.5756 54.5931 16.9134 54.4531 17.2656 54.4531C17.6179 54.4531 17.9557 54.5931 18.2048 54.8421C18.4538 55.0912 18.5938 55.429 18.5938 55.7812Z" fill="url(#paint1_linear_7_202)"/>
<path d="M27.8906 54.4531C28.2429 54.4531 28.5807 54.5931 28.8298 54.8421C29.0788 55.0912 29.2188 55.429 29.2188 55.7812H31.875C31.875 54.7245 31.4552 53.7111 30.708 52.9639C29.9608 52.2167 28.9473 51.7969 27.8906 51.7969C26.8339 51.7969 25.8205 52.2167 25.0732 52.9639C24.326 53.7111 23.9063 54.7245 23.9062 55.7812H26.5625C26.5625 55.429 26.7024 55.0912 26.9515 54.8421C27.2006 54.5931 27.5384 54.4531 27.8906 54.4531Z" fill="url(#paint2_linear_7_202)"/>
<path d="M52.3905 42.6328C52.1875 42.5314 51.9618 42.4836 51.7351 42.4942C51.5084 42.5047 51.2881 42.5732 51.0954 42.6931C50.9027 42.813 50.7439 42.9802 50.6342 43.179C50.5244 43.3777 50.4675 43.6012 50.4687 43.8281V46.4844C50.4689 46.676 50.5106 46.8653 50.5908 47.0393C50.671 47.2133 50.788 47.3679 50.9336 47.4924L59.7656 55.0641V62.3276L57.1226 80.827C57.0956 81.0155 57.1094 81.2075 57.1631 81.3902C57.2168 81.5728 57.3091 81.7418 57.4338 81.8856C57.5585 82.0294 57.7126 82.1448 57.8858 82.2238C58.059 82.3029 58.2471 82.3438 58.4375 82.3438H63.75C64.0562 82.3438 64.353 82.2381 64.5901 82.0445C64.8273 81.8509 64.9903 81.5812 65.0516 81.2813L66.4062 74.5078L67.7609 81.2813C67.8222 81.5812 67.9852 81.8509 68.2223 82.0445C68.4595 82.2381 68.7563 82.3438 69.0625 82.3438H74.375C74.5654 82.3438 74.7535 82.3029 74.9267 82.2238C75.0998 82.1448 75.254 82.0294 75.3787 81.8856C75.5034 81.7418 75.5957 81.5728 75.6494 81.3902C75.7031 81.2075 75.7169 81.0155 75.6898 80.827L73.0469 62.3276V59.7364L77.3633 64.6292C77.5573 64.8498 77.819 64.9998 78.1074 65.0558C78.3957 65.1118 78.6946 65.0706 78.957 64.9387L81.6133 63.6106C81.7854 63.5246 81.9369 63.4023 82.0571 63.2521C82.1774 63.1018 82.2635 62.9273 82.3096 62.7404C82.3557 62.5536 82.3607 62.359 82.3241 62.1701C82.2876 61.9812 82.2105 61.8024 82.098 61.6463L74.1293 50.567C73.5919 49.7119 72.8436 49.0093 71.9563 48.5269C71.0689 48.0445 70.0724 47.7985 69.0625 47.8125H68.7623C69.6417 47.2955 70.3266 46.5035 70.7113 45.5587C71.0961 44.6139 71.1594 43.5688 70.8915 42.5845C70.6235 41.6002 70.0393 40.7314 69.2287 40.112C68.4182 39.4926 67.4264 39.157 66.4062 39.157C65.3861 39.157 64.3943 39.4926 63.5838 40.112C62.7732 40.7314 62.1889 41.6002 61.921 42.5845C61.6531 43.5688 61.7164 44.6139 62.1011 45.5587C62.4859 46.5035 63.1708 47.2955 64.0501 47.8125H62.7353L52.3905 42.6328ZM66.4062 41.836C66.8003 41.836 67.1854 41.9528 67.513 42.1717C67.8407 42.3906 68.096 42.7017 68.2468 43.0658C68.3976 43.4298 68.437 43.8303 68.3601 44.2168C68.2833 44.6032 68.0935 44.9582 67.8149 45.2368C67.5363 45.5154 67.1813 45.7052 66.7949 45.782C66.4085 45.8589 66.0079 45.8195 65.6439 45.6687C65.2798 45.5179 64.9687 45.2626 64.7498 44.9349C64.5309 44.6073 64.4141 44.2222 64.4141 43.8281C64.4141 43.2998 64.6239 42.7931 64.9975 42.4194C65.3712 42.0458 65.8779 41.836 66.4062 41.836ZM71.8024 51.8646C71.8341 51.9262 71.8705 51.9853 71.9113 52.0413L79.0234 61.9318L78.6768 62.1058L72.7122 55.3456C72.5338 55.1433 72.298 55.0002 72.0362 54.9351C71.7745 54.8701 71.4991 54.8864 71.2468 54.9817C70.9945 55.077 70.7771 55.2468 70.6237 55.4687C70.4703 55.6905 70.3881 55.9538 70.388 56.2235V62.4219C70.3878 62.485 70.3922 62.548 70.4012 62.6105L72.8437 79.6875H70.1502L67.7078 67.4688C67.6468 67.1685 67.484 66.8986 67.2467 66.7047C67.0095 66.5108 66.7126 66.4049 66.4062 66.4049C66.0999 66.4049 65.8029 66.5108 65.5657 66.7047C65.3285 66.8986 65.1656 67.1685 65.1047 67.4688L62.6623 79.6875H59.9688L62.4086 62.6105C62.4176 62.548 62.4221 62.485 62.4219 62.4219V54.4531C62.4217 54.2615 62.38 54.0722 62.2998 53.8982C62.2196 53.7242 62.1026 53.5696 61.957 53.4451L53.4159 46.1218L61.8282 50.336C62.0131 50.4256 62.2164 50.471 62.4219 50.4688H69.0625C69.5983 50.4611 70.1278 50.5843 70.6053 50.8275C71.0827 51.0707 71.4936 51.4267 71.8024 51.8646Z" fill="url(#paint3_linear_7_202)"/>
<path d="M81.0156 9.29688H59.7656V3.98438C59.7656 3.63213 59.6257 3.29432 59.3766 3.04525C59.1276 2.79618 58.7897 2.65625 58.4375 2.65625H5.3125C4.96026 2.65625 4.62245 2.79618 4.37337 3.04525C4.1243 3.29432 3.98438 3.63213 3.98438 3.98438V25.2344C3.98438 25.5866 4.1243 25.9244 4.37337 26.1735C4.62245 26.4226 4.96026 26.5625 5.3125 26.5625H23.6659L22.6034 32.984C22.5588 33.2527 22.5979 33.5286 22.7155 33.7744C22.833 34.0201 23.0233 34.2238 23.2604 34.3577C23.4976 34.4917 23.7703 34.5495 24.0414 34.5233C24.3125 34.497 24.569 34.3881 24.7762 34.2112L33.6945 26.5625H37.1875V34.5313C37.1875 34.8835 37.3274 35.2213 37.5765 35.4704C37.8256 35.7195 38.1634 35.8594 38.5156 35.8594H40.7734L48.4075 40.9488C48.6075 41.0811 48.8396 41.1569 49.0791 41.168C49.3187 41.1791 49.5568 41.1251 49.7681 41.0118C49.9795 40.8985 50.1562 40.7301 50.2796 40.5245C50.4029 40.3188 50.4683 40.0836 50.4688 39.8438V35.8594H81.0156C81.3679 35.8594 81.7057 35.7195 81.9548 35.4704C82.2038 35.2213 82.3438 34.8835 82.3438 34.5313V10.625C82.3438 10.2728 82.2038 9.93495 81.9548 9.68587C81.7057 9.4368 81.3679 9.29688 81.0156 9.29688ZM37.1875 10.625V23.9063H33.2031C32.8863 23.9059 32.5799 24.0195 32.3398 24.2263L25.8161 29.8164L26.5439 25.4535C26.5757 25.2632 26.5657 25.0683 26.5146 24.8823C26.4634 24.6963 26.3724 24.5236 26.2478 24.3764C26.1231 24.2291 25.9679 24.1108 25.7929 24.0296C25.6179 23.9484 25.4273 23.9063 25.2344 23.9063H6.64062V5.3125H57.1094V9.29688H38.5156C38.1634 9.29688 37.8256 9.4368 37.5765 9.68587C37.3274 9.93495 37.1875 10.2728 37.1875 10.625ZM79.6875 33.2031H49.1406C48.7884 33.2031 48.4506 33.3431 48.2015 33.5921C47.9524 33.8412 47.8125 34.179 47.8125 34.5313V37.3615L41.909 33.4263C41.6905 33.2811 41.4342 33.2035 41.1719 33.2031H39.8438V11.9531H79.6875V33.2031Z" fill="url(#paint4_linear_7_202)"/>
<path d="M29.742 10.3594L24.4295 8.08302C24.2642 8.01214 24.0862 7.97559 23.9062 7.97559C23.7263 7.97559 23.5483 8.01214 23.383 8.08302L18.0705 10.3594C17.8326 10.4614 17.6298 10.6306 17.4868 10.8462C17.3438 11.0619 17.2669 11.3146 17.2656 11.5733V17.6455C17.2657 17.9054 17.3419 18.1596 17.485 18.3765C17.628 18.5935 17.8316 18.7637 18.0705 18.8661L23.383 21.1425C23.5483 21.2134 23.7263 21.2499 23.9062 21.2499C24.0862 21.2499 24.2642 21.2134 24.4295 21.1425L29.742 18.8661C29.9809 18.7637 30.1845 18.5935 30.3275 18.3765C30.4706 18.1596 30.5468 17.9054 30.5469 17.6455V11.5733C30.5456 11.3146 30.4687 11.0619 30.3257 10.8462C30.1827 10.6306 29.9798 10.4614 29.742 10.3594ZM23.9062 10.7419L25.848 11.5733L23.9062 12.4061L21.9645 11.5733L23.9062 10.7419ZM19.9219 13.5881L22.5781 14.7263V17.9138L19.9219 16.7743V13.5881ZM25.2344 17.9085V14.721L27.8906 13.5828V16.7636L25.2344 17.9085Z" fill="url(#paint5_linear_7_202)"/>
<path d="M55.7812 25.8984H53.125C53.2201 27.2166 53.8313 28.4441 54.8259 29.3144C55.8206 30.1847 57.1183 30.6276 58.4375 30.5469V31.875H61.0938V30.5469C62.4129 30.6276 63.7107 30.1847 64.7053 29.3144C65.6999 28.4441 66.3111 27.2166 66.4062 25.8984C66.3111 24.5802 65.6999 23.3527 64.7053 22.4824C63.7107 21.6121 62.4129 21.1693 61.0938 21.25V17.2656C62.5334 17.2656 63.75 18.178 63.75 19.2578H66.4062C66.3111 17.9396 65.6999 16.7121 64.7053 15.8418C63.7107 14.9715 62.4129 14.5287 61.0938 14.6094V13.2812H58.4375V14.6094C57.1183 14.5287 55.8206 14.9715 54.8259 15.8418C53.8313 16.7121 53.2201 17.9396 53.125 19.2578C53.2201 20.576 53.8313 21.8035 54.8259 22.6738C55.8206 23.5441 57.1183 23.987 58.4375 23.9062V27.8906C56.9978 27.8906 55.7812 26.9782 55.7812 25.8984ZM55.7812 19.2578C55.7812 18.178 56.9978 17.2656 58.4375 17.2656V21.25C56.9978 21.25 55.7812 20.3376 55.7812 19.2578ZM61.0938 23.9062C62.5334 23.9062 63.75 24.8187 63.75 25.8984C63.75 26.9782 62.5334 27.8906 61.0938 27.8906V23.9062Z" fill="url(#paint6_linear_7_202)"/>
<defs>
<linearGradient id="paint0_linear_7_202" x1="2.66024" y1="35.8461" x2="44.9858" y2="78.5604" gradientUnits="userSpaceOnUse">
<stop stop-color="#47FFDE"/>
<stop offset="1" stop-color="#1549D0"/>
</linearGradient>
<linearGradient id="paint1_linear_7_202" x1="13.2821" y1="51.7969" x2="15.83" y2="58.0053" gradientUnits="userSpaceOnUse">
<stop stop-color="#47FFDE"/>
<stop offset="1" stop-color="#1549D0"/>
</linearGradient>
<linearGradient id="paint2_linear_7_202" x1="23.9071" y1="51.7969" x2="26.455" y2="58.0053" gradientUnits="userSpaceOnUse">
<stop stop-color="#47FFDE"/>
<stop offset="1" stop-color="#1549D0"/>
</linearGradient>
<linearGradient id="paint3_linear_7_202" x1="50.472" y1="39.157" x2="89.5652" y2="74.3153" gradientUnits="userSpaceOnUse">
<stop stop-color="#47FFDE"/>
<stop offset="1" stop-color="#1549D0"/>
</linearGradient>
<linearGradient id="paint4_linear_7_202" x1="3.9925" y1="2.65625" x2="28.32" y2="62.9601" gradientUnits="userSpaceOnUse">
<stop stop-color="#47FFDE"/>
<stop offset="1" stop-color="#1549D0"/>
</linearGradient>
<linearGradient id="paint5_linear_7_202" x1="17.267" y1="7.97559" x2="29.1177" y2="22.4212" gradientUnits="userSpaceOnUse">
<stop stop-color="#47FFDE"/>
<stop offset="1" stop-color="#1549D0"/>
</linearGradient>
<linearGradient id="paint6_linear_7_202" x1="53.1264" y1="13.2812" x2="69.8903" y2="27.8698" gradientUnits="userSpaceOnUse">
<stop stop-color="#47FFDE"/>
<stop offset="1" stop-color="#1549D0"/>
</linearGradient>
</defs>
</svg>
