<svg width="178" height="85" viewBox="0 0 178 85" fill="none" xmlns="http://www.w3.org/2000/svg">
<path d="M41.1719 71.7188H35.8594C35.5071 71.7188 35.1693 71.8587 34.9202 72.1077C34.6712 72.3568 34.5312 72.6946 34.5312 73.0469C34.5312 73.3991 34.6712 73.7369 34.9202 73.986C35.1693 74.2351 35.5071 74.375 35.8594 74.375H41.1719C41.5241 74.375 41.8619 74.2351 42.111 73.986C42.3601 73.7369 42.5 73.3991 42.5 73.0469C42.5 72.6946 42.3601 72.3568 42.111 72.1077C41.8619 71.8587 41.5241 71.7188 41.1719 71.7188Z" fill="url(#paint0_linear_7_448)"/>
<path d="M70.3907 33.2031C70.3907 25.8061 67.4522 18.712 62.2217 13.4815C56.9912 8.25097 49.8971 5.3125 42.5 5.3125C35.103 5.3125 28.0089 8.25097 22.7784 13.4815C17.5479 18.712 14.6094 25.8061 14.6094 33.2031C14.6035 34.8718 15.2261 36.4816 16.3532 37.7121C17.4803 38.9425 19.0294 39.7036 20.6922 39.8438L38.9672 55.7812H30.5469C30.1947 55.7812 29.8569 55.9212 29.6078 56.1702C29.3587 56.4193 29.2188 56.7571 29.2188 57.1094V78.3594C29.2188 78.7116 29.3587 79.0494 29.6078 79.2985C29.8569 79.5476 30.1947 79.6875 30.5469 79.6875H54.4532C54.8054 79.6875 55.1432 79.5476 55.3923 79.2985C55.6414 79.0494 55.7813 78.7116 55.7813 78.3594V57.1094C55.7813 56.7571 55.6414 56.4193 55.3923 56.1702C55.1432 55.9212 54.8054 55.7812 54.4532 55.7812H46.0329L64.3078 39.8438C65.9706 39.7036 67.5197 38.9425 68.6469 37.7121C69.774 36.4816 70.3966 34.8718 70.3907 33.2031ZM39.8438 58.4375H45.1563V66.4062H39.8438V58.4375ZM42.5 37.1875C41.4433 37.1875 40.4299 36.7677 39.6827 36.0205C38.9354 35.2733 38.5157 34.2598 38.5157 33.2031C38.4479 25.4143 39.798 17.6781 42.5 10.3727C45.2021 17.6781 46.5522 25.4143 46.4844 33.2031C46.4844 34.2598 46.0646 35.2733 45.3174 36.0205C44.5702 36.7677 43.5568 37.1875 42.5 37.1875ZM37.1875 37.1875C38.1644 38.4829 39.5817 39.3758 41.1719 39.6977V52.1023L33.9602 39.4984C35.243 39.0684 36.3672 38.2634 37.1875 37.1875ZM43.8282 39.6977C45.4183 39.3758 46.8356 38.4829 47.8125 37.1875C48.6328 38.2634 49.7571 39.0684 51.0399 39.4984L43.8282 52.1023V39.6977ZM53.125 37.1875C52.0683 37.1875 51.0549 36.7677 50.3077 36.0205C49.5604 35.2733 49.1407 34.2598 49.1407 33.2031C49.2122 25.168 47.8309 17.186 45.0633 9.64219C53.0321 14.7953 57.1094 22.9234 57.1094 33.2031C57.1094 34.2598 56.6896 35.2733 55.9424 36.0205C55.1952 36.7677 54.1818 37.1875 53.125 37.1875ZM35.8594 33.2031C35.8594 34.2598 35.4396 35.2733 34.6924 36.0205C33.9452 36.7677 32.9318 37.1875 31.875 37.1875C30.8183 37.1875 29.8049 36.7677 29.0577 36.0205C28.3104 35.2733 27.8907 34.2598 27.8907 33.2031C27.8907 22.8703 32.0344 14.7953 39.9368 9.64219C37.1692 17.186 35.7879 25.168 35.8594 33.2031ZM26.5625 37.1875C27.0958 37.9133 27.771 38.5231 28.5473 38.9798C29.3236 39.4364 30.1847 39.7304 31.0782 39.8438L37.4266 50.9602L24.0657 39.2062C25.0489 38.745 25.9056 38.0523 26.5625 37.1875ZM53.9219 39.8438C54.8154 39.7304 55.6765 39.4364 56.4527 38.9798C57.229 38.5231 57.9043 37.9133 58.4375 37.1875C59.0945 38.0523 59.9512 38.745 60.9344 39.2062L47.5735 50.907L53.9219 39.8438ZM67.7344 33.2031C67.7344 34.2598 67.3146 35.2733 66.5674 36.0205C65.8202 36.7677 64.8068 37.1875 63.75 37.1875C62.6933 37.1875 61.6799 36.7677 60.9327 36.0205C60.1854 35.2733 59.7657 34.2598 59.7657 33.2031C59.7657 22.7109 55.7813 14.3305 48.2907 8.65937C53.8218 9.96343 58.7509 13.0963 62.2797 17.5507C65.8086 22.0052 67.7305 27.5203 67.7344 33.2031ZM17.2657 33.2031C17.2695 27.5203 19.1915 22.0052 22.7203 17.5507C26.2492 13.0963 31.1782 9.96343 36.7094 8.65937C29.2188 14.3305 25.2344 22.7109 25.2344 33.2031C25.2344 34.2598 24.8146 35.2733 24.0674 36.0205C23.3202 36.7677 22.3068 37.1875 21.25 37.1875C20.1933 37.1875 19.1799 36.7677 18.4327 36.0205C17.6854 35.2733 17.2657 34.2598 17.2657 33.2031ZM53.125 77.0312H31.875V58.4375H37.1875V67.7344C37.1875 68.0866 37.3275 68.4244 37.5765 68.6735C37.8256 68.9226 38.1634 69.0625 38.5157 69.0625H46.4844C46.8367 69.0625 47.1745 68.9226 47.4235 68.6735C47.6726 68.4244 47.8125 68.0866 47.8125 67.7344V58.4375H53.125V77.0312Z" fill="url(#paint1_linear_7_448)"/>
<g clip-path="url(#clip0_7_448)">
<path d="M179.688 56.3945C180.3 55.4937 180.524 54.4084 180.318 53.3387L174.088 20.9211C173.665 18.7177 171.525 17.2649 169.319 17.6835L129.191 25.2993L109.228 22.7273C109.228 22.7272 109.227 22.7272 109.227 22.727L103.716 22.0171L99.8674 21.5214C99.7996 21.5127 99.7319 21.5056 99.6644 21.5004C98.6516 21.4198 97.6593 21.714 96.8506 22.3388C95.99 23.0039 95.4403 23.9639 95.3026 25.042L95.3022 25.0458C95.3021 25.0459 95.3021 25.0462 95.3021 25.0464L94.4142 31.9978L94.1066 34.4059L92.3152 48.4313C92.3152 48.4313 92.3152 48.4316 92.3151 48.4317L92.0179 50.7585L91.1223 57.7701C90.9438 59.1678 91.5003 60.494 92.4902 61.3589C93.0776 61.8721 93.8178 62.223 94.6479 62.33L94.6508 62.3304C94.6513 62.3303 94.6518 62.3305 94.6521 62.3306L103.79 63.5079L104.6 67.721C104.778 68.6467 105.258 69.4397 105.919 70.0172C106.832 70.8149 108.089 71.2015 109.369 70.9587L130.498 66.9488L153.594 69.9243C153.622 69.93 153.65 69.9382 153.68 69.9421L163.039 71.1477C164.122 71.2872 165.193 70.9968 166.056 70.3302C166.916 69.6652 167.466 68.7052 167.604 67.6271L167.605 67.6195C167.605 67.6184 167.605 67.6173 167.605 67.6164L168.614 59.7148L177.076 58.1088C178.148 57.9049 179.076 57.2964 179.688 56.3945ZM103.644 31.1215C101.646 32.6653 99.2333 33.4614 96.7434 33.419L97.6426 26.3781L97.7726 25.3613C97.8262 24.9419 98.0401 24.5681 98.3751 24.3094C98.6689 24.0824 99.0247 23.9676 99.3914 23.9786C99.4437 23.9803 99.4965 23.9845 99.5492 23.9913L102.217 24.335L107.606 25.0295C107.019 27.4472 105.641 29.5784 103.644 31.1215ZM94.9678 59.8598C94.0987 59.7463 93.4822 58.9508 93.5928 58.0851L93.6052 57.9881L94.6189 50.0525C99.6038 51.2713 103.119 55.7953 103.05 60.9011L94.9678 59.8598ZM108.905 68.5116C108.045 68.6747 107.21 68.1093 107.045 67.2506L106.39 63.8425L122.542 65.9234L108.905 68.5116ZM159.263 61.547C161.261 60.0032 163.673 59.207 166.163 59.2494L165.134 67.3036C165.08 67.7219 164.866 68.0943 164.532 68.3524C164.196 68.6119 163.779 68.725 163.358 68.6707L155.302 67.6328C155.89 65.2177 157.267 63.0887 159.263 61.547ZM176.612 55.6616L168.946 57.1165L171.785 34.8923C172.069 32.6651 170.487 30.6195 168.259 30.3324L155.091 28.6358C153.494 28.4303 153.177 30.8995 154.773 31.106L157.375 31.441C157.227 35.601 159.022 39.4707 162.009 42.0804C163.67 43.5321 165.701 44.5917 167.971 45.097L166.48 56.7684C163.329 56.6502 160.265 57.6254 157.74 59.5761C155.218 61.5244 153.502 64.2387 152.821 67.3128L130.607 64.4508C130.605 64.4506 130.602 64.4502 130.6 64.45L105.53 61.2202C105.756 54.7493 101.282 48.9844 94.9355 47.5715L96.4263 35.8995C99.5775 36.0177 102.641 35.0425 105.166 33.0918C107.69 31.1421 109.406 28.4256 110.087 25.3486L147.869 30.2162C149.466 30.4217 149.784 27.9519 148.187 27.7461L137.147 26.3237L169.783 20.1303C170.643 19.9671 171.477 20.5324 171.642 21.3914L177.873 53.8088C177.953 54.2243 177.866 54.6455 177.628 54.9954C177.39 55.3459 177.029 55.5824 176.612 55.6616ZM167.936 32.8084C168.807 32.9209 169.424 33.7171 169.314 34.5836L168.795 38.6439L168.288 42.6163C163.303 41.3974 159.787 36.8734 159.857 31.7678L167.936 32.8084Z" fill="url(#paint2_linear_7_448)"/>
<path d="M133.526 30.1152C129.193 29.557 124.904 30.7197 121.448 33.3893C117.995 36.0576 115.788 39.9122 115.235 44.2429C114.68 48.5889 115.855 52.8893 118.545 56.352C119.502 57.5836 121.482 56.0746 120.511 54.8242C118.231 51.8885 117.235 48.2428 117.705 44.5583C118.174 40.8879 120.044 37.6211 122.971 35.3597C125.899 33.0972 129.535 32.1117 133.208 32.5851C140.79 33.5617 146.17 40.5235 145.202 48.1035C144.733 51.7741 142.863 55.0408 139.936 57.3022C137.008 59.5646 133.372 60.55 129.699 60.0767C128.254 59.8904 126.859 59.4842 125.554 58.8691C124.097 58.1827 123.036 60.4353 124.492 61.1219C126.033 61.8477 127.678 62.3271 129.381 62.5466C133.714 63.1047 138.004 61.9422 141.459 59.2727C144.912 56.6043 147.119 52.7496 147.672 48.4188C148.814 39.4784 142.469 31.2675 133.526 30.1152Z" fill="url(#paint3_linear_7_448)"/>
<path d="M153.268 50.1856C153.448 50.3424 153.674 50.4494 153.928 50.4821L160.924 51.3835C161.606 51.4712 162.23 50.9895 162.318 50.3076C162.406 49.6255 161.924 49.0014 161.242 48.9135L154.246 48.012C153.564 47.9244 152.94 48.406 152.852 49.0879C152.796 49.5162 152.966 49.9214 153.268 50.1856Z" fill="url(#paint4_linear_7_448)"/>
<path d="M108.979 42.1803L101.983 41.279C101.301 41.1912 100.677 41.6728 100.589 42.3547C100.534 42.783 100.703 43.1882 101.006 43.4525C101.185 43.6092 101.411 43.7162 101.665 43.7489L108.661 44.6502C109.343 44.738 109.967 44.2564 110.055 43.5744C110.143 42.8922 109.662 42.2681 108.979 42.1803Z" fill="url(#paint5_linear_7_448)"/>
<path d="M128.859 56.0228C128.645 57.6939 131.131 57.8862 131.329 56.3383L131.481 55.1441C134.051 54.932 135.779 53.0427 136.355 51.1417C137.306 48.0037 135.38 45.9932 132.823 44.6405L133.466 39.6119C134.151 39.9052 134.528 40.3143 134.565 40.3553C135.609 41.5704 137.494 39.9687 136.462 38.7423C136.406 38.6758 135.475 37.5958 133.788 37.0851L133.913 36.1098C134.116 34.5128 131.646 34.1971 131.443 35.7943L131.307 36.8581C129.419 37.0519 127.796 38.3409 127.207 40.1564C126.343 42.8166 127.998 44.6685 130.141 45.9817L129.315 52.4526C128.515 52.2734 127.998 51.9838 127.17 51.278C125.973 50.2572 124.381 52.1795 125.555 53.1731C126.846 54.274 127.783 54.6909 128.998 54.9301L128.859 56.0228ZM129.815 42.6368C129.451 42.2686 129.357 41.5969 129.575 40.9254C129.762 40.3493 130.223 39.6959 130.976 39.4473L130.494 43.2192C130.239 43.0266 130.008 42.8321 129.815 42.6368ZM132.568 47.3105C134.457 48.2634 134.12 49.9308 133.972 50.4194C133.694 51.336 132.937 52.2475 131.812 52.5592L132.487 47.2695C132.515 47.2832 132.541 47.2967 132.568 47.3105Z" fill="url(#paint6_linear_7_448)"/>
</g>
<defs>
<linearGradient id="paint0_linear_7_448" x1="34.5321" y1="71.7187" x2="35.7631" y2="76.218" gradientUnits="userSpaceOnUse">
<stop stop-color="#47FFDE"/>
<stop offset="1" stop-color="#1549D0"/>
</linearGradient>
<linearGradient id="paint1_linear_7_448" x1="14.6152" y1="5.3125" x2="82.0451" y2="66.9266" gradientUnits="userSpaceOnUse">
<stop stop-color="#47FFDE"/>
<stop offset="1" stop-color="#1549D0"/>
</linearGradient>
<linearGradient id="paint2_linear_7_448" x1="131.503" y1="-17.4285" x2="127.892" y2="102.078" gradientUnits="userSpaceOnUse">
<stop stop-color="#47FFDE"/>
<stop offset="1" stop-color="#1549D0"/>
</linearGradient>
<linearGradient id="paint3_linear_7_448" x1="129.882" y1="23.2644" x2="128.248" y2="69.016" gradientUnits="userSpaceOnUse">
<stop stop-color="#47FFDE"/>
<stop offset="1" stop-color="#1549D0"/>
</linearGradient>
<linearGradient id="paint4_linear_7_448" x1="156.551" y1="44.5352" x2="155.02" y2="54.2959" gradientUnits="userSpaceOnUse">
<stop stop-color="#47FFDE"/>
<stop offset="1" stop-color="#1549D0"/>
</linearGradient>
<linearGradient id="paint5_linear_7_448" x1="104.288" y1="37.8021" x2="102.757" y2="47.5627" gradientUnits="userSpaceOnUse">
<stop stop-color="#47FFDE"/>
<stop offset="1" stop-color="#1549D0"/>
</linearGradient>
<linearGradient id="paint6_linear_7_448" x1="132.184" y1="33.8782" x2="134.548" y2="58.0029" gradientUnits="userSpaceOnUse">
<stop stop-color="#47FFDE"/>
<stop offset="1" stop-color="#1549D0"/>
</linearGradient>
<clipPath id="clip0_7_448">
<rect width="85" height="85" fill="white" transform="translate(93)"/>
</clipPath>
</defs>
</svg>
