<svg width="178" height="85" viewBox="0 0 178 85" fill="none" xmlns="http://www.w3.org/2000/svg">
<g clip-path="url(#clip0_7_476)">
<path d="M86.6881 56.3945C87.3 55.4937 87.5239 54.4084 87.3182 53.3387L81.088 20.9211C80.6645 18.7177 78.5252 17.2649 76.3188 17.6835L36.1914 25.2993L16.2279 22.7273C16.2275 22.7272 16.227 22.7272 16.2265 22.727L10.7158 22.0171L6.86733 21.5214C6.79955 21.5127 6.73189 21.5056 6.66435 21.5004C5.65161 21.4198 4.65931 21.714 3.8506 22.3388C2.99001 23.0039 2.44029 23.9639 2.30258 25.042L2.30213 25.0458C2.30202 25.0459 2.30204 25.0462 2.30205 25.0464L1.4142 31.9978L1.10657 34.4059L-0.684858 48.4313C-0.684858 48.4313 -0.684844 48.4316 -0.684953 48.4317L-0.982172 50.7585L-1.87773 57.7701C-2.05626 59.1678 -1.49974 60.494 -0.509785 61.3589C0.077587 61.8721 0.817803 62.223 1.64783 62.33L1.6508 62.3304C1.65127 62.3303 1.65176 62.3305 1.65211 62.3306L10.7899 63.5079L11.5997 67.721C11.7777 68.6467 12.2582 69.4397 12.9192 70.0172C13.8322 70.8149 15.0894 71.2015 16.369 70.9587L37.4978 66.9488L60.5937 69.9243C60.6225 69.93 60.6502 69.9382 60.6796 69.9421L70.0391 71.1477C71.1216 71.2872 72.193 70.9968 73.0556 70.3302C73.9162 69.6652 74.4659 68.7052 74.6036 67.6271L74.6045 67.6195C74.6046 67.6184 74.6048 67.6173 74.605 67.6164L75.6142 59.7148L84.0763 58.1088C85.148 57.9049 86.0756 57.2964 86.6881 56.3945V56.3945ZM10.6437 31.1215C8.64558 32.6653 6.23326 33.4614 3.74336 33.419L4.64259 26.3781L4.77255 25.3613C4.82617 24.9419 5.04007 24.5681 5.37503 24.3094C5.66883 24.0824 6.02467 23.9676 6.39135 23.9786C6.4437 23.9803 6.49646 23.9845 6.54916 23.9913L9.21657 24.335L14.6064 25.0295C14.0192 27.4472 12.6407 29.5784 10.6437 31.1215ZM1.96775 59.8598C1.09868 59.7463 0.482164 58.9508 0.592775 58.0851L0.60518 57.9881L1.61883 50.0525C6.60377 51.2713 10.1194 55.7953 10.0495 60.9011L1.96775 59.8598ZM15.9047 68.5116C15.0446 68.6747 14.2103 68.1093 14.0454 67.2506L13.3904 63.8425L29.542 65.9234L15.9047 68.5116ZM66.2626 61.547C68.2607 60.0032 70.6731 59.207 73.163 59.2494L72.1342 67.3036C72.0798 67.7219 71.8661 68.0943 71.532 68.3524C71.1961 68.6119 70.7792 68.725 70.3577 68.6707L62.3015 67.6328C62.8895 65.2177 64.2674 63.0887 66.2626 61.547V61.547ZM83.6118 55.6616L75.9459 57.1165L78.7846 34.8923C79.0692 32.6651 77.4874 30.6195 75.259 30.3324L62.0913 28.6358C60.4944 28.4303 60.1766 30.8995 61.7732 31.106L64.3747 31.441C64.2268 35.601 66.0219 39.4707 69.0087 42.0804C70.6703 43.5321 72.7014 44.5917 74.9706 45.097L73.4798 56.7684C70.3286 56.6502 67.2649 57.6254 64.74 59.5761C62.218 61.5244 60.5023 64.2387 59.8207 67.3128L37.6068 64.4508C37.6045 64.4506 37.6023 64.4502 37.6 64.45L12.5298 61.2202C12.7564 54.7493 8.28174 48.9844 1.93543 47.5715L3.42626 35.8995C6.57748 36.0177 9.64122 35.0425 12.1661 33.0918C14.6897 31.1421 16.4062 28.4256 17.0868 25.3486L54.8691 30.2162C56.4659 30.4217 56.7839 27.9519 55.1872 27.7461L44.1472 26.3237L76.7832 20.1303C77.6432 19.9671 78.4774 20.5324 78.6425 21.3914L84.8726 53.8088C84.9525 54.2243 84.8656 54.6455 84.628 54.9954C84.3899 55.3459 84.0291 55.5824 83.6118 55.6616V55.6616ZM74.9357 32.8084C75.8065 32.9209 76.4242 33.7171 76.3135 34.5836L75.795 38.6439L75.2876 42.6163C70.3025 41.3974 66.7869 36.8734 66.8569 31.7678L74.9357 32.8084Z" fill="url(#paint0_linear_7_476)"/>
<path d="M40.5262 30.1152C36.1929 29.557 31.9037 30.7197 28.4484 33.3893C24.9947 36.0576 22.7881 39.9122 22.2351 44.2429C21.6799 48.5889 22.8553 52.8893 25.5447 56.352C26.5017 57.5836 28.4824 56.0746 27.5115 54.8242C25.2314 51.8885 24.2348 48.2428 24.7054 44.5583C25.1741 40.8879 27.0441 37.6211 29.9712 35.3597C32.8994 33.0972 36.535 32.1117 40.2083 32.5851C47.7899 33.5617 53.1703 40.5235 52.2021 48.1035C51.7333 51.7741 49.8631 55.0408 46.9362 57.3022C44.0078 59.5646 40.3723 60.55 36.6993 60.0767C35.2538 59.8904 33.859 59.4842 32.5536 58.8691C31.0973 58.1827 30.0359 60.4353 31.4921 61.1219C33.0327 61.8477 34.6776 62.3271 36.3812 62.5466C40.7144 63.1047 45.0036 61.9422 48.4587 59.2727C51.9125 56.6043 54.1192 52.7496 54.6723 48.4188C55.814 39.4784 49.4686 31.2675 40.5262 30.1152V30.1152Z" fill="url(#paint1_linear_7_476)"/>
<path d="M60.2681 50.1856C60.4475 50.3424 60.6737 50.4494 60.9275 50.4821L67.9239 51.3835C68.6059 51.4712 69.23 50.9895 69.3181 50.3076C69.4059 49.6255 68.924 49.0014 68.2422 48.9135L61.2458 48.012C60.5638 47.9244 59.9397 48.406 59.8517 49.0879C59.7963 49.5162 59.9656 49.9214 60.2681 50.1856Z" fill="url(#paint2_linear_7_476)"/>
<path d="M15.9795 42.1803L8.98324 41.279C8.30135 41.1912 7.67726 41.6728 7.58921 42.3547C7.53406 42.783 7.70316 43.1882 8.0056 43.4525C8.18501 43.6092 8.41119 43.7162 8.66508 43.7489L15.6614 44.6502C16.3432 44.738 16.9673 44.2564 17.0554 43.5744C17.1431 42.8922 16.6616 42.2681 15.9795 42.1803Z" fill="url(#paint3_linear_7_476)"/>
<path d="M35.8589 56.0228C35.6453 57.6939 38.1315 57.8862 38.3291 56.3383L38.4815 55.1441C41.051 54.932 42.7793 53.0427 43.3555 51.1417C44.3064 48.0037 42.3802 45.9932 39.8232 44.6405L40.4655 39.6119C41.1515 39.9052 41.5284 40.3143 41.5652 40.3553C42.6085 41.5704 44.4943 39.9687 43.4625 38.7423C43.4063 38.6758 42.475 37.5958 40.7882 37.0851L40.9128 36.1098C41.1164 34.5128 38.6464 34.1971 38.4426 35.7943L38.3066 36.8581C36.4192 37.0519 34.7958 38.3409 34.2066 40.1564C33.3429 42.8166 34.998 44.6685 37.1412 45.9817L36.3147 52.4526C35.5147 52.2734 34.9981 51.9838 34.1703 51.278C32.9729 50.2572 31.3808 52.1795 32.5546 53.1731C33.8459 54.274 34.7828 54.6909 35.9983 54.9301L35.8589 56.0228ZM36.8149 42.6368C36.4514 42.2686 36.3573 41.5969 36.5753 40.9254C36.7623 40.3493 37.2229 39.6959 37.9761 39.4473L37.4944 43.2192C37.2387 43.0266 37.008 42.8321 36.8149 42.6368V42.6368ZM39.5683 47.3105C41.4572 48.2634 41.1202 49.9308 40.9721 50.4194C40.6945 51.336 39.9371 52.2475 38.8118 52.5592L39.4875 47.2695C39.5148 47.2832 39.5405 47.2967 39.5683 47.3105V47.3105Z" fill="url(#paint4_linear_7_476)"/>
</g>
<g clip-path="url(#clip1_7_476)">
<path d="M110.566 70.5974H99.3274C98.5515 70.5974 97.9225 71.2264 97.9225 72.0023V83.2412C97.9225 84.0171 98.5515 84.6461 99.3274 84.6461H110.566C111.342 84.6461 111.971 84.0171 111.971 83.2412V72.0023C111.971 71.2263 111.342 70.5974 110.566 70.5974ZM109.161 81.8364H100.732V73.4071H109.161V81.8364Z" fill="url(#paint5_linear_7_476)"/>
<path d="M131.639 66.3828H120.4C119.625 66.3828 118.996 67.0118 118.996 67.7877V83.2412C118.996 84.0171 119.625 84.6461 120.4 84.6461H131.639C132.415 84.6461 133.044 84.0171 133.044 83.2412V67.7877C133.044 67.0117 132.415 66.3828 131.639 66.3828ZM130.234 81.8364H121.805V69.1925H130.234V81.8364Z" fill="url(#paint6_linear_7_476)"/>
<path d="M152.712 60.7634H141.473C140.698 60.7634 140.069 61.3925 140.069 62.1683V83.2413C140.069 84.0172 140.698 84.6462 141.473 84.6462H152.712C153.488 84.6462 154.117 84.0172 154.117 83.2413V62.1683C154.117 61.3923 153.488 60.7634 152.712 60.7634ZM151.307 81.8365H142.878V63.5732H151.307V81.8365Z" fill="url(#paint7_linear_7_476)"/>
<path d="M173.785 48.1196H162.546C161.771 48.1196 161.142 48.7487 161.142 49.5245V83.2413C161.142 84.0172 161.771 84.6462 162.546 84.6462H173.785C174.561 84.6462 175.19 84.0172 175.19 83.2413V49.5245C175.19 48.7485 174.561 48.1196 173.785 48.1196ZM172.381 81.8365H163.951V50.9294H172.381V81.8365Z" fill="url(#paint8_linear_7_476)"/>
<path d="M168.166 12.9977H164.82L164.988 12.6609C166.055 10.5273 165.19 7.93283 163.056 6.86601C161.037 5.85679 158.582 6.57169 157.421 8.50672L155.567 11.5974L153.712 8.50672C152.484 6.46141 149.831 5.79884 147.786 7.02669C145.851 8.18799 145.137 10.6426 146.145 12.6609L146.314 12.9977H142.878C142.102 12.9977 141.473 13.6268 141.473 14.4026V21.4269C141.473 22.2028 142.102 22.8318 142.878 22.8318H144.283V35.4756C144.283 36.2515 144.912 36.8805 145.688 36.8805H165.356C166.132 36.8805 166.761 36.2515 166.761 35.4756V22.8318H168.166C168.941 22.8318 169.57 22.2028 169.57 21.4269V14.4026C169.571 13.6266 168.942 12.9977 168.166 12.9977ZM151.307 34.0708H147.093V22.8318H151.307V34.0708ZM151.307 20.0221H144.283V15.8075H151.307V20.0221ZM149.456 12.9977L148.659 11.4043C148.286 10.6588 148.588 9.75196 149.333 9.37897C150.039 9.026 150.898 9.27589 151.303 9.95268L153.13 12.9977H149.456ZM156.927 34.0708H154.117V22.8318H156.927V34.0708ZM156.927 20.0221H154.117V15.8075H156.927V20.0221ZM159.83 9.95268C160.259 9.23761 161.186 9.00528 161.901 9.43394C162.578 9.83959 162.828 10.6985 162.475 11.4043L161.678 12.9977H158.003L159.83 9.95268ZM163.951 34.0708H159.737V22.8318H163.951V34.0708ZM166.761 20.0221H159.737V15.8075H166.761V20.0221Z" fill="url(#paint9_linear_7_476)"/>
<path d="M139.588 6.97705C138.204 8.3684 137.006 9.93448 136.027 11.6354L138.462 13.0375C139.32 11.5481 140.368 10.1772 141.581 8.95932L139.588 6.97705Z" fill="url(#paint10_linear_7_476)"/>
<path d="M155.522 42.5001C153.811 42.5013 152.107 42.2797 150.453 41.8408L149.73 44.5559C151.62 45.0573 153.567 45.3107 155.522 45.3098H155.543L155.522 42.5001Z" fill="url(#paint11_linear_7_476)"/>
<path d="M155.522 0.354008H155.458L155.522 3.16375C157.22 3.16252 158.911 3.38062 160.553 3.81262L161.27 1.09613C159.394 0.602319 157.462 0.352779 155.522 0.354008Z" fill="url(#paint12_linear_7_476)"/>
<path d="M141.635 36.7598L139.651 38.7491C141.041 40.1355 142.606 41.3344 144.307 42.3155L145.71 39.8817C144.222 39.0227 142.852 37.973 141.635 36.7598Z" fill="url(#paint13_linear_7_476)"/>
<path d="M133.792 17.0615C133.299 18.9216 133.048 20.8376 133.046 22.762L133.043 22.8745L135.854 22.832C135.853 21.1274 136.073 19.43 136.508 17.7819L133.792 17.0615Z" fill="url(#paint14_linear_7_476)"/>
<path d="M136.53 27.9609L133.816 28.6908C134.327 30.5873 135.085 32.4082 136.072 34.1065L138.502 32.6948C137.639 31.2106 136.976 29.6189 136.53 27.9609Z" fill="url(#paint15_linear_7_476)"/>
<path d="M165.368 39.8625C163.882 40.7237 162.29 41.3854 160.631 41.8306L161.36 44.5443C163.256 44.035 165.078 43.2781 166.777 42.2935L165.368 39.8625Z" fill="url(#paint16_linear_7_476)"/>
<path d="M172.562 32.6604C171.702 34.1482 170.651 35.517 169.436 36.7324L171.424 38.7189C172.811 37.33 174.012 35.766 174.995 34.0667L172.562 32.6604Z" fill="url(#paint17_linear_7_476)"/>
<path d="M149.643 1.1311C147.747 1.6437 145.926 2.40427 144.229 3.39277L145.642 5.82108C147.126 4.95674 148.718 4.29171 150.375 3.84338L149.643 1.1311Z" fill="url(#paint18_linear_7_476)"/>
<path d="M174.949 11.5188L172.523 12.9346C173.388 14.4177 174.055 16.0084 174.505 17.6656L177.216 16.9289C176.701 15.0338 175.939 13.2148 174.949 11.5188Z" fill="url(#paint19_linear_7_476)"/>
<path d="M175.19 22.8318C175.191 24.55 174.968 26.2608 174.526 27.921L177.241 28.6453C177.746 26.7488 178.001 24.7944 178 22.8318V22.7468L175.19 22.8318Z" fill="url(#paint20_linear_7_476)"/>
<path d="M166.697 3.32544L165.299 5.76201C166.79 6.61775 168.162 7.66455 169.381 8.87555L171.36 6.88204C169.968 5.4986 168.4 4.30288 166.697 3.32544Z" fill="url(#paint21_linear_7_476)"/>
<path d="M136.085 43.9242L127.656 42.5193L127.194 45.2906L132.385 46.1556L124.147 52.3341H110.566C110.318 52.3339 110.073 52.3999 109.859 52.5255L93.0002 62.3595L94.4161 64.7865L110.947 55.1438H124.615C124.919 55.1436 125.215 55.0449 125.458 54.8625L133.892 48.5374L133.064 53.5078L135.835 53.9702L137.24 45.541C137.367 44.7759 136.85 44.052 136.085 43.9242Z" fill="url(#paint22_linear_7_476)"/>
</g>
<defs>
<linearGradient id="paint0_linear_7_476" x1="38.5032" y1="-17.4285" x2="34.8921" y2="102.078" gradientUnits="userSpaceOnUse">
<stop stop-color="#47FFDE"/>
<stop offset="1" stop-color="#1549D0"/>
</linearGradient>
<linearGradient id="paint1_linear_7_476" x1="36.882" y1="23.2644" x2="35.248" y2="69.016" gradientUnits="userSpaceOnUse">
<stop stop-color="#47FFDE"/>
<stop offset="1" stop-color="#1549D0"/>
</linearGradient>
<linearGradient id="paint2_linear_7_476" x1="63.551" y1="44.5352" x2="62.0199" y2="54.2959" gradientUnits="userSpaceOnUse">
<stop stop-color="#47FFDE"/>
<stop offset="1" stop-color="#1549D0"/>
</linearGradient>
<linearGradient id="paint3_linear_7_476" x1="11.2886" y1="37.8021" x2="9.75754" y2="47.5627" gradientUnits="userSpaceOnUse">
<stop stop-color="#47FFDE"/>
<stop offset="1" stop-color="#1549D0"/>
</linearGradient>
<linearGradient id="paint4_linear_7_476" x1="39.1843" y1="33.8782" x2="41.5476" y2="58.0029" gradientUnits="userSpaceOnUse">
<stop stop-color="#47FFDE"/>
<stop offset="1" stop-color="#1549D0"/>
</linearGradient>
<linearGradient id="paint5_linear_7_476" x1="97.9239" y1="70.5974" x2="110.467" y2="85.8793" gradientUnits="userSpaceOnUse">
<stop stop-color="#47FFDE"/>
<stop offset="1" stop-color="#1549D0"/>
</linearGradient>
<linearGradient id="paint6_linear_7_476" x1="118.997" y1="66.3828" x2="135.587" y2="81.9309" gradientUnits="userSpaceOnUse">
<stop stop-color="#47FFDE"/>
<stop offset="1" stop-color="#1549D0"/>
</linearGradient>
<linearGradient id="paint7_linear_7_476" x1="140.07" y1="60.7634" x2="160.658" y2="75.5179" gradientUnits="userSpaceOnUse">
<stop stop-color="#47FFDE"/>
<stop offset="1" stop-color="#1549D0"/>
</linearGradient>
<linearGradient id="paint8_linear_7_476" x1="161.143" y1="48.1196" x2="186.694" y2="60.0927" gradientUnits="userSpaceOnUse">
<stop stop-color="#47FFDE"/>
<stop offset="1" stop-color="#1549D0"/>
</linearGradient>
<linearGradient id="paint9_linear_7_476" x1="141.476" y1="6.40942" x2="169.027" y2="37.3613" gradientUnits="userSpaceOnUse">
<stop stop-color="#47FFDE"/>
<stop offset="1" stop-color="#1549D0"/>
</linearGradient>
<linearGradient id="paint10_linear_7_476" x1="136.027" y1="6.97705" x2="141.511" y2="13.0992" gradientUnits="userSpaceOnUse">
<stop stop-color="#47FFDE"/>
<stop offset="1" stop-color="#1549D0"/>
</linearGradient>
<linearGradient id="paint11_linear_7_476" x1="149.73" y1="41.8408" x2="152.225" y2="46.9346" gradientUnits="userSpaceOnUse">
<stop stop-color="#47FFDE"/>
<stop offset="1" stop-color="#1549D0"/>
</linearGradient>
<linearGradient id="paint12_linear_7_476" x1="155.459" y1="0.354004" x2="157.942" y2="5.43798" gradientUnits="userSpaceOnUse">
<stop stop-color="#47FFDE"/>
<stop offset="1" stop-color="#1549D0"/>
</linearGradient>
<linearGradient id="paint13_linear_7_476" x1="139.652" y1="36.7598" x2="144.512" y2="43.2166" gradientUnits="userSpaceOnUse">
<stop stop-color="#47FFDE"/>
<stop offset="1" stop-color="#1549D0"/>
</linearGradient>
<linearGradient id="paint14_linear_7_476" x1="133.044" y1="17.0615" x2="138.076" y2="20.7157" gradientUnits="userSpaceOnUse">
<stop stop-color="#47FFDE"/>
<stop offset="1" stop-color="#1549D0"/>
</linearGradient>
<linearGradient id="paint15_linear_7_476" x1="133.816" y1="27.9609" x2="139.396" y2="33.1438" gradientUnits="userSpaceOnUse">
<stop stop-color="#47FFDE"/>
<stop offset="1" stop-color="#1549D0"/>
</linearGradient>
<linearGradient id="paint16_linear_7_476" x1="160.632" y1="39.8625" x2="164.464" y2="45.9904" gradientUnits="userSpaceOnUse">
<stop stop-color="#47FFDE"/>
<stop offset="1" stop-color="#1549D0"/>
</linearGradient>
<linearGradient id="paint17_linear_7_476" x1="169.436" y1="32.6604" x2="174.917" y2="38.7876" gradientUnits="userSpaceOnUse">
<stop stop-color="#47FFDE"/>
<stop offset="1" stop-color="#1549D0"/>
</linearGradient>
<linearGradient id="paint18_linear_7_476" x1="144.23" y1="1.1311" x2="148.071" y2="7.26403" gradientUnits="userSpaceOnUse">
<stop stop-color="#47FFDE"/>
<stop offset="1" stop-color="#1549D0"/>
</linearGradient>
<linearGradient id="paint19_linear_7_476" x1="172.523" y1="11.5188" x2="178.104" y2="16.7104" gradientUnits="userSpaceOnUse">
<stop stop-color="#47FFDE"/>
<stop offset="1" stop-color="#1549D0"/>
</linearGradient>
<linearGradient id="paint20_linear_7_476" x1="174.526" y1="22.7468" x2="179.613" y2="26.3974" gradientUnits="userSpaceOnUse">
<stop stop-color="#47FFDE"/>
<stop offset="1" stop-color="#1549D0"/>
</linearGradient>
<linearGradient id="paint21_linear_7_476" x1="165.3" y1="3.32544" x2="170.153" y2="9.78253" gradientUnits="userSpaceOnUse">
<stop stop-color="#47FFDE"/>
<stop offset="1" stop-color="#1549D0"/>
</linearGradient>
<linearGradient id="paint22_linear_7_476" x1="93.0048" y1="42.5193" x2="107.307" y2="77.1533" gradientUnits="userSpaceOnUse">
<stop stop-color="#47FFDE"/>
<stop offset="1" stop-color="#1549D0"/>
</linearGradient>
<clipPath id="clip0_7_476">
<rect width="85" height="85" fill="white"/>
</clipPath>
<clipPath id="clip1_7_476">
<rect width="85" height="85" fill="white" transform="translate(93)"/>
</clipPath>
</defs>
</svg>
