<svg width="85" height="85" viewBox="0 0 85 85" fill="none" xmlns="http://www.w3.org/2000/svg">
<path d="M81.0156 29.2188C80.6634 29.2188 80.3256 29.3587 80.0765 29.6077C79.8274 29.8568 79.6875 30.1946 79.6875 30.5469V57.1094C79.6875 58.1661 79.2677 59.1795 78.5205 59.9268C77.7733 60.674 76.7598 61.0938 75.7031 61.0938H9.29688C8.24015 61.0938 7.22671 60.674 6.4795 59.9268C5.73228 59.1795 5.3125 58.1661 5.3125 57.1094V47.8125C5.3125 47.4603 5.17257 47.1224 4.9235 46.8734C4.67443 46.6243 4.33662 46.4844 3.98438 46.4844C3.63213 46.4844 3.29432 46.6243 3.04525 46.8734C2.79618 47.1224 2.65625 47.4603 2.65625 47.8125V57.1094C2.65836 58.8699 3.35867 60.5578 4.60357 61.8027C5.84848 63.0476 7.53632 63.7479 9.29688 63.75H26.4881C26.316 65.8053 25.7261 67.8039 24.7546 69.6233C23.7831 71.4428 22.4505 73.0447 20.8383 74.3312L20.7852 74.375H17.2656C15.5051 74.3771 13.8172 75.0774 12.5723 76.3223C11.3274 77.5672 10.6271 79.2551 10.625 81.0156C10.625 81.3679 10.7649 81.7057 11.014 81.9548C11.2631 82.2038 11.6009 82.3438 11.9531 82.3438H25.2344C25.5866 82.3438 25.9244 82.2038 26.1735 81.9548C26.4226 81.7057 26.5625 81.3679 26.5625 81.0156C26.5625 80.6634 26.4226 80.3256 26.1735 80.0765C25.9244 79.8274 25.5866 79.6875 25.2344 79.6875H13.5084C13.7841 78.9112 14.2931 78.2392 14.9658 77.7636C15.6385 77.2881 16.4418 77.0323 17.2656 77.0312H67.7344C68.5582 77.0323 69.3615 77.2881 70.0342 77.7636C70.7068 78.2392 71.2159 78.9112 71.4916 79.6875H30.5469C30.1946 79.6875 29.8568 79.8274 29.6077 80.0765C29.3587 80.3256 29.2188 80.6634 29.2188 81.0156C29.2188 81.3679 29.3587 81.7057 29.6077 81.9548C29.8568 82.2038 30.1946 82.3438 30.5469 82.3438H73.0469C73.3991 82.3438 73.7369 82.2038 73.986 81.9548C74.2351 81.7057 74.375 81.3679 74.375 81.0156C74.3729 79.2551 73.6726 77.5672 72.4277 76.3223C71.1828 75.0774 69.4949 74.3771 67.7344 74.375H64.2162L64.1617 74.3312C62.5495 73.0447 61.2169 71.4428 60.2454 69.6233C59.2739 67.8039 58.684 65.8053 58.5119 63.75H75.7031C77.4637 63.7479 79.1515 63.0476 80.3964 61.8027C81.6413 60.5578 82.3416 58.8699 82.3438 57.1094V30.5469C82.3438 30.1946 82.2038 29.8568 81.9548 29.6077C81.7057 29.3587 81.3679 29.2188 81.0156 29.2188ZM60.35 74.375H24.65C27.2954 71.4344 28.8845 67.6954 29.1656 63.75H55.8304C56.1126 67.6959 57.7031 71.4349 60.35 74.375Z" fill="url(#paint0_linear_7_218)"/>
<path d="M75.7031 5.3125H9.29688C7.53632 5.31461 5.84848 6.01492 4.60357 7.25982C3.35867 8.50473 2.65836 10.1926 2.65625 11.9531V42.5C2.65625 42.8522 2.79618 43.1901 3.04525 43.4391C3.29432 43.6882 3.63213 43.8281 3.98438 43.8281C4.33662 43.8281 4.67443 43.6882 4.9235 43.4391C5.17257 43.1901 5.3125 42.8522 5.3125 42.5V11.9531C5.3125 10.8964 5.73228 9.88296 6.4795 9.13575C7.22671 8.38853 8.24015 7.96875 9.29688 7.96875H75.7031C76.7598 7.96875 77.7733 8.38853 78.5205 9.13575C79.2677 9.88296 79.6875 10.8964 79.6875 11.9531V25.2344C79.6875 25.5866 79.8274 25.9244 80.0765 26.1735C80.3256 26.4226 80.6634 26.5625 81.0156 26.5625C81.3679 26.5625 81.7057 26.4226 81.9548 26.1735C82.2038 25.9244 82.3438 25.5866 82.3438 25.2344V11.9531C82.3416 10.1926 81.6413 8.50473 80.3964 7.25982C79.1515 6.01492 77.4637 5.31461 75.7031 5.3125Z" fill="url(#paint1_linear_7_218)"/>
<path d="M55.7613 25.0019C55.8219 24.655 55.7421 24.2982 55.5396 24.01C55.3372 23.7218 55.0285 23.5259 54.6816 23.4653C50.595 22.7437 46.7028 21.1811 43.2517 18.8766C43.0329 18.7298 42.7754 18.6515 42.512 18.6515C42.2485 18.6515 41.991 18.7298 41.7722 18.8766C38.3209 21.1968 34.4181 22.761 30.3198 23.4666C30.0114 23.5201 29.7318 23.6809 29.5303 23.9205C29.3289 24.16 29.2185 24.4631 29.2188 24.7761V31.6983C29.2213 33.7158 29.6405 35.711 30.45 37.5589C31.2594 39.4069 32.4418 41.0677 33.923 42.4375L41.6115 49.5271C41.8568 49.7533 42.1782 49.8789 42.512 49.8789C42.8457 49.8789 43.1671 49.7533 43.4124 49.5271L51.085 42.4389C52.5638 41.0693 53.7441 39.4094 54.5522 37.563C55.3603 35.7165 55.7787 33.7232 55.7812 31.7076V30.5468C55.7812 30.1946 55.6413 29.8568 55.3923 29.6077C55.1432 29.3586 54.8054 29.2187 54.4531 29.2187C54.1009 29.2187 53.7631 29.3586 53.514 29.6077C53.2649 29.8568 53.125 30.1946 53.125 30.5468V31.7076C53.123 33.3567 52.7808 34.9877 52.1196 36.4985C51.4585 38.0093 50.4927 39.3674 49.2827 40.4878L42.5093 46.7433L35.7266 40.4852C34.5141 39.3647 33.5462 38.0059 32.8834 36.4939C32.2207 34.9818 31.8773 33.3492 31.875 31.6983V25.8732C35.6513 25.0876 39.255 23.6276 42.5133 21.5634C46.0879 23.8126 50.0654 25.3462 54.2247 26.079C54.5712 26.1396 54.9277 26.0602 55.2158 25.8583C55.5039 25.6564 55.7001 25.3484 55.7613 25.0019Z" fill="url(#paint2_linear_7_218)"/>
<path d="M46.7925 28.3687L41.0816 35.2205L38.1251 32.2641C37.8747 32.0222 37.5392 31.8883 37.1909 31.8913C36.8427 31.8943 36.5096 32.034 36.2634 32.2803C36.0171 32.5265 35.8774 32.8596 35.8744 33.2078C35.8714 33.5561 36.0053 33.8916 36.2472 34.1421L40.2316 38.1264C40.355 38.2499 40.5016 38.3479 40.663 38.4146C40.8243 38.4814 40.9972 38.5157 41.1719 38.5156H41.2316C41.416 38.5072 41.5967 38.4605 41.762 38.3784C41.9273 38.2963 42.0737 38.1806 42.1919 38.0388L48.8325 30.07C49.048 29.7984 49.1488 29.4533 49.1132 29.1084C49.0777 28.7635 48.9087 28.4462 48.6423 28.2242C48.376 28.0023 48.0334 27.8932 47.6877 27.9205C47.3421 27.9477 47.0208 28.1091 46.7925 28.37V28.3687Z" fill="url(#paint3_linear_7_218)"/>
<path d="M21.25 43.8282C20.8978 43.8282 20.5599 43.9681 20.3109 44.2171C20.0618 44.4662 19.9219 44.804 19.9219 45.1563V50.4688H17.0212C16.7079 49.5826 16.0915 48.8358 15.2808 48.3602C14.4701 47.8846 13.5173 47.711 12.591 47.8699C11.6646 48.0288 10.8243 48.5102 10.2184 49.2288C9.61264 49.9474 9.28036 50.857 9.28036 51.7969C9.28036 52.7368 9.61264 53.6464 10.2184 54.365C10.8243 55.0836 11.6646 55.565 12.591 55.7239C13.5173 55.8828 14.4701 55.7092 15.2808 55.2336C16.0915 54.758 16.7079 54.0112 17.0212 53.125H21.25C21.6022 53.125 21.9401 52.9851 22.1891 52.736C22.4382 52.487 22.5781 52.1491 22.5781 51.7969V46.4844H30.4765L41.6141 56.7575C41.8594 56.9837 42.1809 57.1093 42.5146 57.1093C42.8483 57.1093 43.1698 56.9837 43.4151 56.7575L54.5341 46.4844H62.4219V51.7969C62.4219 52.1491 62.5618 52.487 62.8109 52.736C63.0599 52.9851 63.3978 53.125 63.75 53.125H67.9787C68.2524 53.8992 68.7587 54.5699 69.4281 55.0454C70.0976 55.5209 70.8976 55.7779 71.7187 55.7813C72.071 55.7813 72.4088 55.6413 72.6579 55.3923C72.9069 55.1432 73.0469 54.8054 73.0469 54.4532C73.0469 54.1009 72.9069 53.7631 72.6579 53.514C72.4088 53.265 72.071 53.125 71.7187 53.125C71.4561 53.125 71.1993 53.0471 70.9809 52.9012C70.7625 52.7553 70.5922 52.5478 70.4917 52.3052C70.3912 52.0625 70.3649 51.7954 70.4161 51.5378C70.4674 51.2802 70.5939 51.0435 70.7796 50.8578C70.9654 50.672 71.202 50.5455 71.4596 50.4943C71.7173 50.4431 71.9843 50.4694 72.227 50.5699C72.4697 50.6704 72.6771 50.8406 72.823 51.059C72.969 51.2774 73.0469 51.5342 73.0469 51.7969C73.0469 52.1491 73.1868 52.487 73.4359 52.736C73.6849 52.9851 74.0228 53.125 74.375 53.125C74.7272 53.125 75.065 52.9851 75.3141 52.736C75.5632 52.487 75.7031 52.1491 75.7031 51.7969C75.7049 50.8581 75.3744 49.9491 74.7701 49.2306C74.1658 48.5122 73.3268 48.0309 72.4016 47.8718C71.4765 47.7127 70.5248 47.8862 69.7153 48.3615C68.9058 48.8368 68.2906 49.5833 67.9787 50.4688H65.0781V45.1563C65.0781 44.804 64.9382 44.4662 64.6891 44.2171C64.4401 43.9681 64.1022 43.8282 63.75 43.8282H56.9487C58.758 41.4791 60.0223 38.7572 60.6502 35.8594H67.9787C68.292 36.7455 68.9085 37.4924 69.7192 37.968C70.5299 38.4435 71.4827 38.6172 72.409 38.4583C73.3354 38.2993 74.1757 37.818 74.7815 37.0994C75.3874 36.3808 75.7196 35.4712 75.7196 34.5313C75.7196 33.5914 75.3874 32.6817 74.7815 31.9631C74.1757 31.2445 73.3354 30.7632 72.409 30.6043C71.4827 30.4453 70.5299 30.619 69.7192 31.0946C68.9085 31.5701 68.292 32.317 67.9787 33.2032H61.0154C61.0526 32.7064 61.0937 32.2097 61.0937 31.7077V26.5625H71.7187C72.071 26.5625 72.4088 26.4226 72.6579 26.1735C72.9069 25.9245 73.0469 25.5866 73.0469 25.2344V19.6775C73.933 19.3642 74.6799 18.7477 75.1554 17.937C75.631 17.1263 75.8047 16.1736 75.6457 15.2473C75.4868 14.3209 75.0055 13.4805 74.2869 12.8747C73.5683 12.2689 72.6586 11.9366 71.7187 11.9366C70.7789 11.9366 69.8692 12.2689 69.1506 12.8747C68.432 13.4805 67.9507 14.3209 67.7918 15.2473C67.6328 16.1736 67.8065 17.1263 68.282 17.937C68.7576 18.7477 69.5045 19.3642 70.3906 19.6775V23.9063H61.0937V19.9219C61.0937 19.5697 60.9538 19.2318 60.7048 18.9828C60.4557 18.7337 60.1179 18.5938 59.7656 18.5938C54.0712 18.5898 48.5581 16.5913 44.1841 12.9453L43.3659 12.2613C43.1272 12.0622 42.8262 11.9531 42.5153 11.9531C42.2044 11.9531 41.9034 12.0622 41.6646 12.2613L40.8093 12.9732C36.4325 16.6067 30.9228 18.595 25.2344 18.5938C24.8821 18.5938 24.5443 18.7337 24.2952 18.9828C24.0462 19.2318 23.9062 19.5697 23.9062 19.9219V23.9063H14.6094V19.6775C15.4955 19.3642 16.2424 18.7477 16.7179 17.937C17.1935 17.1263 17.3672 16.1736 17.2082 15.2473C17.0493 14.3209 16.568 13.4805 15.8494 12.8747C15.1308 12.2689 14.2211 11.9366 13.2812 11.9366C12.3413 11.9366 11.4317 12.2689 10.7131 12.8747C9.9945 13.4805 9.51319 14.3209 9.35425 15.2473C9.19531 16.1736 9.36898 17.1263 9.84455 17.937C10.3201 18.7477 11.067 19.3642 11.9531 19.6775V25.2344C11.9531 25.5866 12.093 25.9245 12.3421 26.1735C12.5912 26.4226 12.929 26.5625 13.2812 26.5625H25.2344C25.5866 26.5625 25.9244 26.4226 26.1735 26.1735C26.4226 25.9245 26.5625 25.5866 26.5625 25.2344V21.2182C32.4092 20.9317 38.0049 18.7547 42.508 15.0145C47.007 18.7507 52.5965 20.9271 58.4375 21.2168V31.709C58.4345 34.091 57.94 36.4468 56.985 38.629C56.03 40.8112 54.635 42.7728 52.8873 44.3913L42.5133 53.9737L32.1234 44.3899C30.3724 42.7715 28.9747 40.8087 28.0178 38.6248C27.0609 36.4408 26.5654 34.0828 26.5625 31.6984V30.5469C26.5625 30.1947 26.4226 29.8568 26.1735 29.6078C25.9244 29.3587 25.5866 29.2188 25.2344 29.2188C24.8821 29.2188 24.5443 29.3587 24.2952 29.6078C24.0462 29.8568 23.9062 30.1947 23.9062 30.5469V31.6984C23.9062 32.2031 23.9474 32.7024 23.9846 33.2032H17.0212C16.7079 32.317 16.0915 31.5701 15.2808 31.0946C14.4701 30.619 13.5173 30.4453 12.591 30.6043C11.6646 30.7632 10.8243 31.2445 10.2184 31.9631C9.61264 32.6817 9.28036 33.5914 9.28036 34.5313C9.28036 35.4712 9.61264 36.3808 10.2184 37.0994C10.8243 37.818 11.6646 38.2993 12.591 38.4583C13.5173 38.6172 14.4701 38.4435 15.2808 37.968C16.0915 37.4924 16.7079 36.7455 17.0212 35.8594H24.3512C24.9809 38.7575 26.247 41.4795 28.058 43.8282H21.25ZM13.2812 53.125C13.0186 53.125 12.7618 53.0471 12.5434 52.9012C12.325 52.7553 12.1547 52.5478 12.0542 52.3052C11.9537 52.0625 11.9274 51.7954 11.9786 51.5378C12.0299 51.2802 12.1564 51.0435 12.3421 50.8578C12.5279 50.672 12.7645 50.5455 13.0221 50.4943C13.2798 50.4431 13.5468 50.4694 13.7895 50.5699C14.0322 50.6704 14.2396 50.8406 14.3855 51.059C14.5315 51.2774 14.6094 51.5342 14.6094 51.7969C14.6094 52.1491 14.4694 52.487 14.2204 52.736C13.9713 52.9851 13.6335 53.125 13.2812 53.125ZM71.7187 33.2032C71.9814 33.2032 72.2382 33.281 72.4566 33.427C72.675 33.5729 72.8452 33.7803 72.9458 34.023C73.0463 34.2657 73.0726 34.5328 73.0214 34.7904C72.9701 35.048 72.8436 35.2847 72.6579 35.4704C72.4721 35.6561 72.2355 35.7826 71.9779 35.8339C71.7202 35.8851 71.4532 35.8588 71.2105 35.7583C70.9678 35.6578 70.7604 35.4876 70.6144 35.2691C70.4685 35.0507 70.3906 34.794 70.3906 34.5313C70.3906 34.179 70.5305 33.8412 70.7796 33.5921C71.0287 33.3431 71.3665 33.2032 71.7187 33.2032ZM71.7187 14.6094C71.9814 14.6094 72.2382 14.6873 72.4566 14.8332C72.675 14.9792 72.8452 15.1866 72.9458 15.4293C73.0463 15.672 73.0726 15.939 73.0214 16.1966C72.9701 16.4543 72.8436 16.6909 72.6579 16.8767C72.4721 17.0624 72.2355 17.1889 71.9779 17.2401C71.7202 17.2914 71.4532 17.2651 71.2105 17.1646C70.9678 17.064 70.7604 16.8938 70.6144 16.6754C70.4685 16.457 70.3906 16.2002 70.3906 15.9375C70.3906 15.5853 70.5305 15.2475 70.7796 14.9984C71.0287 14.7493 71.3665 14.6094 71.7187 14.6094ZM13.2812 14.6094C13.5439 14.6094 13.8007 14.6873 14.0191 14.8332C14.2375 14.9792 14.4078 15.1866 14.5083 15.4293C14.6088 15.672 14.6351 15.939 14.5839 16.1966C14.5326 16.4543 14.4061 16.6909 14.2204 16.8767C14.0346 17.0624 13.798 17.1889 13.5403 17.2401C13.2827 17.2914 13.0157 17.2651 12.773 17.1646C12.5303 17.064 12.3229 16.8938 12.1769 16.6754C12.031 16.457 11.9531 16.2002 11.9531 15.9375C11.9531 15.5853 12.093 15.2475 12.3421 14.9984C12.5912 14.7493 12.929 14.6094 13.2812 14.6094ZM13.2812 35.8594C13.0186 35.8594 12.7618 35.7815 12.5434 35.6356C12.325 35.4896 12.1547 35.2822 12.0542 35.0395C11.9537 34.7968 11.9274 34.5298 11.9786 34.2722C12.0299 34.0145 12.1564 33.7779 12.3421 33.5921C12.5279 33.4064 12.7645 33.2799 13.0221 33.2287C13.2798 33.1774 13.5468 33.2037 13.7895 33.3042C14.0322 33.4048 14.2396 33.575 14.3855 33.7934C14.5315 34.0118 14.6094 34.2686 14.6094 34.5313C14.6094 34.8835 14.4694 35.2213 14.2204 35.4704C13.9713 35.7195 13.6335 35.8594 13.2812 35.8594Z" fill="url(#paint4_linear_7_218)"/>
<defs>
<linearGradient id="paint0_linear_7_218" x1="2.66451" y1="29.2187" x2="43.3942" y2="103.652" gradientUnits="userSpaceOnUse">
<stop stop-color="#47FFDE"/>
<stop offset="1" stop-color="#1549D0"/>
</linearGradient>
<linearGradient id="paint1_linear_7_218" x1="2.66451" y1="5.3125" x2="26.7004" y2="65.8995" gradientUnits="userSpaceOnUse">
<stop stop-color="#47FFDE"/>
<stop offset="1" stop-color="#1549D0"/>
</linearGradient>
<linearGradient id="paint2_linear_7_218" x1="29.2215" y1="18.6515" x2="57.6301" y2="48.0922" gradientUnits="userSpaceOnUse">
<stop stop-color="#47FFDE"/>
<stop offset="1" stop-color="#1549D0"/>
</linearGradient>
<linearGradient id="paint3_linear_7_218" x1="35.8757" y1="27.9164" x2="44.7303" y2="41.3979" gradientUnits="userSpaceOnUse">
<stop stop-color="#47FFDE"/>
<stop offset="1" stop-color="#1549D0"/>
</linearGradient>
<linearGradient id="paint4_linear_7_218" x1="9.28725" y1="11.9366" x2="44.2845" y2="74.6483" gradientUnits="userSpaceOnUse">
<stop stop-color="#47FFDE"/>
<stop offset="1" stop-color="#1549D0"/>
</linearGradient>
</defs>
</svg>
