<svg width="178" height="85" viewBox="0 0 178 85" fill="none" xmlns="http://www.w3.org/2000/svg">
<g clip-path="url(#clip0_7_503)">
<path d="M17.1871 44.7C17.8906 45.8593 18.9429 46.7662 20.1932 47.2911C20.7902 47.5501 21.3344 47.917 21.7983 48.3734C23.0549 49.935 24.9154 50.8896 26.9167 50.9999C28.9181 50.8896 30.7785 49.935 32.0351 48.3734C32.4991 47.917 33.0432 47.5501 33.6402 47.2911C34.8906 46.7662 35.9428 45.8593 36.6464 44.7C37.1635 43.6309 37.4809 42.4762 37.5828 41.2929C38.7273 40.9587 39.498 39.8891 39.4528 38.6976C39.5212 38.0175 39.7816 37.3709 40.2036 36.8333C40.8532 35.9419 41.231 34.8816 41.2916 33.7803C41.2946 33.0719 41.095 32.3774 40.7165 31.7786C41.3582 28.21 41.4248 23.4911 38.5603 19.9763C36.1888 17.0594 32.2703 15.5833 26.9167 15.5833C21.5631 15.5833 17.6446 17.0594 15.2731 19.9749C12.4101 23.4883 12.4752 28.2058 13.1156 31.7729C12.7411 32.3747 12.5446 33.0702 12.5489 33.7789C12.6072 34.88 12.9826 35.9407 13.6298 36.8333C14.0531 37.3729 14.3135 38.0221 14.3806 38.7047C14.3354 39.8961 15.1061 40.9658 16.2506 41.3C16.3527 42.481 16.6701 43.6333 17.1871 44.7ZM17.4704 21.7585C19.2766 19.5414 22.4556 18.4166 26.9167 18.4166C31.3778 18.4166 34.5568 19.5414 36.3631 21.7585C38.3648 24.215 38.4087 27.7014 38.0829 30.2585C38.0645 30.2585 38.0475 30.2585 38.0291 30.2585C37.6041 27.8431 36.6124 24.6882 34.3061 23.3664C33.3203 22.8058 32.0705 23.0782 31.4076 23.9983C31.1738 24.3198 30.1609 25.3696 26.9167 25.3696C23.6726 25.3696 22.6596 24.3198 22.4259 23.9997C21.7634 23.0768 20.5103 22.8045 19.5246 23.3693C17.2225 24.6882 16.2308 27.8431 15.7959 30.1877C15.7775 30.1877 15.7605 30.1877 15.7421 30.1877C15.4261 27.6391 15.4871 24.1923 17.4704 21.7585ZM15.3751 33.7733C15.3751 33.4658 15.5423 33.0253 15.9135 33.0097C17.2307 32.9836 18.3493 32.0376 18.5938 30.743C18.7727 29.0471 19.445 27.4409 20.5276 26.1233C21.4243 27.0512 23.2716 28.1958 26.9167 28.1958C30.5618 28.1958 32.4077 27.0526 33.3059 26.1233C34.3874 27.441 35.0596 29.0464 35.2396 30.7416C35.4847 32.0364 36.6038 32.9823 37.9214 33.0083C38.2911 33.0238 38.4583 33.4644 38.4583 33.7718C38.3791 34.3459 38.1477 34.8884 37.7882 35.3429C37.1031 36.3057 36.6976 37.4393 36.6166 38.6183C36.4922 38.6343 36.3667 38.6414 36.2412 38.6395C35.4588 38.6395 34.8246 39.2738 34.8246 40.0562C34.8199 41.1938 34.5892 42.3192 34.146 43.3669C33.6977 44.0148 33.0613 44.5093 32.3227 44.7836C31.4007 45.2017 30.5706 45.7982 29.8804 46.5388C29.1576 47.465 28.0861 48.0535 26.9167 48.1666C25.7469 48.0528 24.6754 47.4632 23.9531 46.536C23.2628 45.7954 22.4328 45.1988 21.5107 44.7808C20.7722 44.5065 20.1357 44.012 19.6875 43.3641C19.242 42.316 19.0113 41.1893 19.0089 40.0505C19.0089 39.2681 18.3746 38.6338 17.5922 38.6338C17.4658 38.6358 17.3394 38.6287 17.214 38.6126C17.1415 37.4323 16.7363 36.2967 16.0452 35.3373C15.6869 34.8847 15.4556 34.3449 15.3751 33.7733Z" fill="url(#paint0_linear_7_503)"/>
<path d="M80.75 15.5832H53.8334V4.24989C53.8366 3.10109 53.1458 2.06406 52.0844 1.62437C51.0231 1.18469 49.8013 1.42939 48.9912 2.24389L43.9167 7.32831L37.4085 0.824393C36.2982 -0.280331 34.504 -0.280331 33.3937 0.824393L26.9011 7.32689L20.4241 0.825809C19.2991 -0.244023 17.5329 -0.244023 16.4078 0.825809L9.91668 7.32973L4.84076 2.24248C4.0303 1.4288 2.80884 1.18484 1.748 1.62476C0.687159 2.06468 -0.00319655 3.10146 1.11495e-05 4.24989V80.7499C-0.00320028 81.8987 0.687589 82.9357 1.74892 83.3754C2.81025 83.8151 4.03204 83.5704 4.84218 82.7559L9.91668 77.6701L16.4064 84.174C17.5322 85.2433 19.2983 85.2433 20.4241 84.174L26.9025 77.6715L33.3923 84.1754C34.5016 85.2825 36.2978 85.2825 37.4071 84.1754L43.9167 77.6701L48.9898 82.7573C49.8 83.573 51.0227 83.8183 52.0848 83.3781C53.1469 82.9379 53.8377 81.8996 53.8334 80.7499V55.2499H80.75C83.0972 55.2499 85 53.3471 85 50.9999V19.8332C85 17.486 83.0972 15.5832 80.75 15.5832ZM45.9241 75.6683C44.799 74.6001 43.0344 74.6001 41.9093 75.6683L35.3997 82.1666L28.9085 75.6612C27.7984 74.5548 26.0024 74.5548 24.8923 75.6612L18.4167 82.1666L11.9241 75.6683C10.7991 74.5985 9.03286 74.5985 7.90785 75.6683L2.83334 80.7499V4.24989L7.90926 9.33148C9.03428 10.4013 10.8005 10.4013 11.9255 9.33148L18.4167 2.83323L24.8937 9.33714C26.0038 10.4436 27.7998 10.4436 28.9099 9.33714L35.4068 2.83323L41.9093 9.33573C43.0343 10.4056 44.8005 10.4056 45.9255 9.33573L51 4.24989V15.5832C48.6528 15.5832 46.75 17.486 46.75 19.8332V31.967L44.5386 33.9135C44.1393 34.3117 43.9155 34.8527 43.9167 35.4166C43.9227 36.0085 44.1716 36.5719 44.6052 36.9749L46.75 38.8633V50.9999C46.75 53.3471 48.6528 55.2499 51 55.2499V80.7499L45.9241 75.6683ZM82.1667 50.9999C82.1667 51.7823 81.5324 52.4166 80.75 52.4166H51C50.2176 52.4166 49.5834 51.7823 49.5834 50.9999V38.5431C49.5773 37.9512 49.3284 37.3878 48.8949 36.9848L47.1155 35.4166L48.9572 33.7916C49.3576 33.3945 49.583 32.854 49.5834 32.29V19.8332C49.5834 19.0508 50.2176 18.4166 51 18.4166H80.75C81.5324 18.4166 82.1667 19.0508 82.1667 19.8332V50.9999Z" fill="url(#paint1_linear_7_503)"/>
<path d="M70.8334 29.75C70.8334 30.5324 71.4676 31.1667 72.25 31.1667C73.0324 31.1667 73.6667 30.5324 73.6667 29.75C73.6624 26.3853 71.2958 23.4861 68 22.8083V22.6667C68 21.8843 67.3658 21.25 66.5834 21.25C65.801 21.25 65.1667 21.8843 65.1667 22.6667V22.8083C61.8654 23.4787 59.4929 26.3813 59.4929 29.75C59.4929 33.1187 61.8654 36.0213 65.1667 36.6917V45.0741C63.4742 44.4757 62.3402 42.8785 62.3334 41.0833C62.3334 40.3009 61.6991 39.6667 60.9167 39.6667C60.1343 39.6667 59.5 40.3009 59.5 41.0833C59.5043 44.4481 61.8709 47.3472 65.1667 48.025V48.1667C65.1667 48.9491 65.801 49.5833 66.5834 49.5833C67.3658 49.5833 68 48.9491 68 48.1667V48.025C71.3013 47.3546 73.6738 44.452 73.6738 41.0833C73.6738 37.7147 71.3013 34.812 68 34.1417V25.7607C69.692 26.3589 70.8259 27.9554 70.8334 29.75ZM62.3334 29.75C62.3408 27.9554 63.4747 26.3589 65.1667 25.7607V33.7393C63.4747 33.1411 62.3408 31.5446 62.3334 29.75ZM70.8334 41.0833C70.8259 42.8779 69.692 44.4745 68 45.0727V37.094C69.692 37.6922 70.8259 39.2887 70.8334 41.0833Z" fill="url(#paint2_linear_7_503)"/>
<path d="M11.3333 55.25H9.91667C9.13426 55.25 8.5 55.8843 8.5 56.6667C8.5 57.4491 9.13426 58.0833 9.91667 58.0833H11.3333C12.1157 58.0833 12.75 57.4491 12.75 56.6667C12.75 55.8843 12.1157 55.25 11.3333 55.25Z" fill="url(#paint3_linear_7_503)"/>
<path d="M43.9167 55.25H17C16.2176 55.25 15.5834 55.8843 15.5834 56.6667C15.5834 57.4491 16.2176 58.0833 17 58.0833H43.9167C44.6991 58.0833 45.3334 57.4491 45.3334 56.6667C45.3334 55.8843 44.6991 55.25 43.9167 55.25Z" fill="url(#paint4_linear_7_503)"/>
<path d="M11.3333 60.9165H9.91667C9.13426 60.9165 8.5 61.5508 8.5 62.3332C8.5 63.1156 9.13426 63.7498 9.91667 63.7498H11.3333C12.1157 63.7498 12.75 63.1156 12.75 62.3332C12.75 61.5508 12.1157 60.9165 11.3333 60.9165Z" fill="url(#paint5_linear_7_503)"/>
<path d="M43.9167 60.9165H17C16.2176 60.9165 15.5834 61.5508 15.5834 62.3332C15.5834 63.1156 16.2176 63.7498 17 63.7498H43.9167C44.6991 63.7498 45.3334 63.1156 45.3334 62.3332C45.3334 61.5508 44.6991 60.9165 43.9167 60.9165Z" fill="url(#paint6_linear_7_503)"/>
<path d="M11.3333 66.5833H9.91667C9.13426 66.5833 8.5 67.2175 8.5 67.9999C8.5 68.7823 9.13426 69.4166 9.91667 69.4166H11.3333C12.1157 69.4166 12.75 68.7823 12.75 67.9999C12.75 67.2175 12.1157 66.5833 11.3333 66.5833Z" fill="url(#paint7_linear_7_503)"/>
<path d="M43.9167 66.5833H17C16.2176 66.5833 15.5834 67.2175 15.5834 67.9999C15.5834 68.7823 16.2176 69.4166 17 69.4166H43.9167C44.6991 69.4166 45.3334 68.7823 45.3334 67.9999C45.3334 67.2175 44.6991 66.5833 43.9167 66.5833Z" fill="url(#paint8_linear_7_503)"/>
</g>
<g clip-path="url(#clip1_7_503)">
<path d="M179.688 56.3945C180.3 55.4937 180.524 54.4084 180.318 53.3387L174.088 20.9211C173.665 18.7177 171.525 17.2649 169.319 17.6835L129.191 25.2993L109.228 22.7273C109.228 22.7272 109.227 22.7272 109.227 22.727L103.716 22.0171L99.8674 21.5214C99.7996 21.5127 99.7319 21.5056 99.6644 21.5004C98.6516 21.4198 97.6593 21.714 96.8506 22.3388C95.99 23.0039 95.4403 23.9639 95.3026 25.042L95.3022 25.0458C95.3021 25.0459 95.3021 25.0462 95.3021 25.0464L94.4142 31.9978L94.1066 34.4059L92.3152 48.4313C92.3152 48.4313 92.3152 48.4316 92.3151 48.4317L92.0179 50.7585L91.1223 57.7701C90.9438 59.1678 91.5003 60.494 92.4902 61.3589C93.0776 61.8721 93.8178 62.223 94.6479 62.33L94.6508 62.3304C94.6513 62.3303 94.6518 62.3305 94.6521 62.3306L103.79 63.5079L104.6 67.721C104.778 68.6467 105.258 69.4397 105.919 70.0172C106.832 70.8149 108.089 71.2015 109.369 70.9587L130.498 66.9488L153.594 69.9243C153.622 69.93 153.65 69.9382 153.68 69.9421L163.039 71.1477C164.122 71.2872 165.193 70.9968 166.056 70.3302C166.916 69.6652 167.466 68.7052 167.604 67.6271L167.605 67.6195C167.605 67.6184 167.605 67.6173 167.605 67.6164L168.614 59.7148L177.076 58.1088C178.148 57.9049 179.076 57.2964 179.688 56.3945ZM103.644 31.1215C101.646 32.6653 99.2333 33.4614 96.7434 33.419L97.6426 26.3781L97.7726 25.3613C97.8262 24.9419 98.0401 24.5681 98.3751 24.3094C98.6689 24.0824 99.0247 23.9676 99.3914 23.9786C99.4437 23.9803 99.4965 23.9845 99.5492 23.9913L102.217 24.335L107.606 25.0295C107.019 27.4472 105.641 29.5784 103.644 31.1215ZM94.9678 59.8598C94.0987 59.7463 93.4822 58.9508 93.5928 58.0851L93.6052 57.9881L94.6189 50.0525C99.6038 51.2713 103.119 55.7953 103.05 60.9011L94.9678 59.8598ZM108.905 68.5116C108.045 68.6747 107.21 68.1093 107.045 67.2506L106.39 63.8425L122.542 65.9234L108.905 68.5116ZM159.263 61.547C161.261 60.0032 163.673 59.207 166.163 59.2494L165.134 67.3036C165.08 67.7219 164.866 68.0943 164.532 68.3524C164.196 68.6119 163.779 68.725 163.358 68.6707L155.302 67.6328C155.89 65.2177 157.267 63.0887 159.263 61.547ZM176.612 55.6616L168.946 57.1165L171.785 34.8923C172.069 32.6651 170.487 30.6195 168.259 30.3324L155.091 28.6358C153.494 28.4303 153.177 30.8995 154.773 31.106L157.375 31.441C157.227 35.601 159.022 39.4707 162.009 42.0804C163.67 43.5321 165.701 44.5917 167.971 45.097L166.48 56.7684C163.329 56.6502 160.265 57.6254 157.74 59.5761C155.218 61.5244 153.502 64.2387 152.821 67.3128L130.607 64.4508C130.605 64.4506 130.602 64.4502 130.6 64.45L105.53 61.2202C105.756 54.7493 101.282 48.9844 94.9355 47.5715L96.4263 35.8995C99.5775 36.0177 102.641 35.0425 105.166 33.0918C107.69 31.1421 109.406 28.4256 110.087 25.3486L147.869 30.2162C149.466 30.4217 149.784 27.9519 148.187 27.7461L137.147 26.3237L169.783 20.1303C170.643 19.9671 171.477 20.5324 171.642 21.3914L177.873 53.8088C177.953 54.2243 177.866 54.6455 177.628 54.9954C177.39 55.3459 177.029 55.5824 176.612 55.6616ZM167.936 32.8084C168.807 32.9209 169.424 33.7171 169.314 34.5836L168.795 38.6439L168.288 42.6163C163.303 41.3974 159.787 36.8734 159.857 31.7678L167.936 32.8084Z" fill="url(#paint9_linear_7_503)"/>
<path d="M133.526 30.1152C129.193 29.557 124.904 30.7197 121.448 33.3893C117.995 36.0576 115.788 39.9122 115.235 44.2429C114.68 48.5889 115.855 52.8893 118.545 56.352C119.502 57.5836 121.482 56.0746 120.511 54.8242C118.231 51.8885 117.235 48.2428 117.705 44.5583C118.174 40.8879 120.044 37.6211 122.971 35.3597C125.899 33.0972 129.535 32.1117 133.208 32.5851C140.79 33.5617 146.17 40.5235 145.202 48.1035C144.733 51.7741 142.863 55.0408 139.936 57.3022C137.008 59.5646 133.372 60.55 129.699 60.0767C128.254 59.8904 126.859 59.4842 125.554 58.8691C124.097 58.1827 123.036 60.4353 124.492 61.1219C126.033 61.8477 127.678 62.3271 129.381 62.5466C133.714 63.1047 138.004 61.9422 141.459 59.2727C144.912 56.6043 147.119 52.7496 147.672 48.4188C148.814 39.4784 142.469 31.2675 133.526 30.1152Z" fill="url(#paint10_linear_7_503)"/>
<path d="M153.268 50.1856C153.448 50.3424 153.674 50.4494 153.928 50.4821L160.924 51.3835C161.606 51.4712 162.23 50.9895 162.318 50.3076C162.406 49.6255 161.924 49.0014 161.242 48.9135L154.246 48.012C153.564 47.9244 152.94 48.406 152.852 49.0879C152.796 49.5162 152.966 49.9214 153.268 50.1856Z" fill="url(#paint11_linear_7_503)"/>
<path d="M108.979 42.1803L101.983 41.279C101.301 41.1912 100.677 41.6728 100.589 42.3547C100.534 42.783 100.703 43.1882 101.006 43.4525C101.185 43.6092 101.411 43.7162 101.665 43.7489L108.661 44.6502C109.343 44.738 109.967 44.2564 110.055 43.5744C110.143 42.8922 109.662 42.2681 108.979 42.1803Z" fill="url(#paint12_linear_7_503)"/>
<path d="M128.859 56.0228C128.645 57.6939 131.131 57.8862 131.329 56.3383L131.481 55.1441C134.051 54.932 135.779 53.0427 136.355 51.1417C137.306 48.0037 135.38 45.9932 132.823 44.6405L133.466 39.6119C134.151 39.9052 134.528 40.3143 134.565 40.3553C135.609 41.5704 137.494 39.9687 136.462 38.7423C136.406 38.6758 135.475 37.5958 133.788 37.0851L133.913 36.1098C134.116 34.5128 131.646 34.1971 131.443 35.7943L131.307 36.8581C129.419 37.0519 127.796 38.3409 127.207 40.1564C126.343 42.8166 127.998 44.6685 130.141 45.9817L129.315 52.4526C128.515 52.2734 127.998 51.9838 127.17 51.278C125.973 50.2572 124.381 52.1795 125.555 53.1731C126.846 54.274 127.783 54.6909 128.998 54.9301L128.859 56.0228ZM129.815 42.6368C129.451 42.2686 129.357 41.5969 129.575 40.9254C129.762 40.3493 130.223 39.6959 130.976 39.4473L130.494 43.2192C130.239 43.0266 130.008 42.8321 129.815 42.6368ZM132.568 47.3105C134.457 48.2634 134.12 49.9308 133.972 50.4194C133.694 51.336 132.937 52.2475 131.812 52.5592L132.487 47.2695C132.515 47.2832 132.541 47.2967 132.568 47.3105Z" fill="url(#paint13_linear_7_503)"/>
</g>
<defs>
<linearGradient id="paint0_linear_7_503" x1="12.5518" y1="15.5833" x2="44.7899" y2="47.4588" gradientUnits="userSpaceOnUse">
<stop stop-color="#47FFDE"/>
<stop offset="1" stop-color="#1549D0"/>
</linearGradient>
<linearGradient id="paint1_linear_7_503" x1="0.0088089" y1="-0.0041504" x2="75.9111" y2="92.4593" gradientUnits="userSpaceOnUse">
<stop stop-color="#47FFDE"/>
<stop offset="1" stop-color="#1549D0"/>
</linearGradient>
<linearGradient id="paint2_linear_7_503" x1="59.4944" y1="21.25" x2="82.4236" y2="35.2317" gradientUnits="userSpaceOnUse">
<stop stop-color="#47FFDE"/>
<stop offset="1" stop-color="#1549D0"/>
</linearGradient>
<linearGradient id="paint3_linear_7_503" x1="8.50044" y1="55.25" x2="10.6727" y2="59.2198" gradientUnits="userSpaceOnUse">
<stop stop-color="#47FFDE"/>
<stop offset="1" stop-color="#1549D0"/>
</linearGradient>
<linearGradient id="paint4_linear_7_503" x1="15.5865" y1="55.25" x2="15.9872" y2="60.3771" gradientUnits="userSpaceOnUse">
<stop stop-color="#47FFDE"/>
<stop offset="1" stop-color="#1549D0"/>
</linearGradient>
<linearGradient id="paint5_linear_7_503" x1="8.50044" y1="60.9165" x2="10.6727" y2="64.8863" gradientUnits="userSpaceOnUse">
<stop stop-color="#47FFDE"/>
<stop offset="1" stop-color="#1549D0"/>
</linearGradient>
<linearGradient id="paint6_linear_7_503" x1="15.5865" y1="60.9165" x2="15.9872" y2="66.0436" gradientUnits="userSpaceOnUse">
<stop stop-color="#47FFDE"/>
<stop offset="1" stop-color="#1549D0"/>
</linearGradient>
<linearGradient id="paint7_linear_7_503" x1="8.50044" y1="66.5833" x2="10.6727" y2="70.553" gradientUnits="userSpaceOnUse">
<stop stop-color="#47FFDE"/>
<stop offset="1" stop-color="#1549D0"/>
</linearGradient>
<linearGradient id="paint8_linear_7_503" x1="15.5865" y1="66.5833" x2="15.9872" y2="71.7104" gradientUnits="userSpaceOnUse">
<stop stop-color="#47FFDE"/>
<stop offset="1" stop-color="#1549D0"/>
</linearGradient>
<linearGradient id="paint9_linear_7_503" x1="131.503" y1="-17.4285" x2="127.892" y2="102.078" gradientUnits="userSpaceOnUse">
<stop stop-color="#47FFDE"/>
<stop offset="1" stop-color="#1549D0"/>
</linearGradient>
<linearGradient id="paint10_linear_7_503" x1="129.882" y1="23.2644" x2="128.248" y2="69.016" gradientUnits="userSpaceOnUse">
<stop stop-color="#47FFDE"/>
<stop offset="1" stop-color="#1549D0"/>
</linearGradient>
<linearGradient id="paint11_linear_7_503" x1="156.551" y1="44.5352" x2="155.02" y2="54.2959" gradientUnits="userSpaceOnUse">
<stop stop-color="#47FFDE"/>
<stop offset="1" stop-color="#1549D0"/>
</linearGradient>
<linearGradient id="paint12_linear_7_503" x1="104.288" y1="37.8021" x2="102.757" y2="47.5627" gradientUnits="userSpaceOnUse">
<stop stop-color="#47FFDE"/>
<stop offset="1" stop-color="#1549D0"/>
</linearGradient>
<linearGradient id="paint13_linear_7_503" x1="132.184" y1="33.8782" x2="134.548" y2="58.0029" gradientUnits="userSpaceOnUse">
<stop stop-color="#47FFDE"/>
<stop offset="1" stop-color="#1549D0"/>
</linearGradient>
<clipPath id="clip0_7_503">
<rect width="85" height="85" fill="white"/>
</clipPath>
<clipPath id="clip1_7_503">
<rect width="85" height="85" fill="white" transform="translate(93)"/>
</clipPath>
</defs>
</svg>
